190627_Arrow_Regular.ufo
<glyph name="percent" format="1">
  <advance width="805"/>
  <unicode hex="0025"/>
  <outline>
    <contour>
      <point x="282" y="475" type="curve" smooth="yes"/>
      <point x="282" y="381"/>
      <point x="232" y="363"/>
      <point x="198" y="363" type="curve" smooth="yes"/>
      <point x="150" y="363"/>
      <point x="111" y="400"/>
      <point x="111" y="470" type="curve" smooth="yes"/>
      <point x="111" y="566"/>
      <point x="160" y="584"/>
      <point x="194" y="584" type="curve" smooth="yes"/>
      <point x="242" y="584"/>
      <point x="282" y="544"/>
    </contour>
    <contour>
      <point x="352" y="477" type="curve" smooth="yes"/>
      <point x="352" y="607"/>
      <point x="254" y="633"/>
      <point x="203" y="633" type="curve" smooth="yes"/>
      <point x="140" y="633"/>
      <point x="40" y="599"/>
      <point x="40" y="470" type="curve" smooth="yes"/>
      <point x="40" y="340"/>
      <point x="137" y="314"/>
      <point x="188" y="314" type="curve" smooth="yes"/>
      <point x="253" y="314"/>
      <point x="352" y="348"/>
    </contour>
    <contour>
      <point x="145" y="-4" type="line"/>
      <point x="192" y="-32" type="line"/>
      <point x="419" y="294" type="line"/>
      <point x="657" y="614" type="line"/>
      <point x="610" y="643" type="line"/>
      <point x="383" y="317" type="line"/>
    </contour>
    <contour>
      <point x="694" y="145" type="curve" smooth="yes"/>
      <point x="694" y="51"/>
      <point x="644" y="33"/>
      <point x="610" y="33" type="curve" smooth="yes"/>
      <point x="562" y="33"/>
      <point x="523" y="70"/>
      <point x="523" y="140" type="curve" smooth="yes"/>
      <point x="523" y="236"/>
      <point x="572" y="254"/>
      <point x="606" y="254" type="curve" smooth="yes"/>
      <point x="654" y="254"/>
      <point x="694" y="214"/>
    </contour>
    <contour>
      <point x="764" y="147" type="curve" smooth="yes"/>
      <point x="764" y="277"/>
      <point x="666" y="303"/>
      <point x="615" y="303" type="curve" smooth="yes"/>
      <point x="552" y="303"/>
      <point x="452" y="269"/>
      <point x="452" y="140" type="curve" smooth="yes"/>
      <point x="452" y="10"/>
      <point x="549" y="-16"/>
      <point x="600" y="-16" type="curve" smooth="yes"/>
      <point x="665" y="-16"/>
      <point x="764" y="18"/>
    </contour>
  </outline>
</glyph>
<glyph name="ampersand" format="1">
  <advance width="726"/>
  <unicode hex="0026"/>
  <outline>
    <contour>
      <point x="620" y="-8" type="curve" smooth="yes"/>
      <point x="647" y="-8"/>
      <point x="674.0" y="-4.0"/>
      <point x="698.0" y="2.0" type="curve"/>
      <point x="698" y="41" type="line"/>
      <point x="641" y="46" type="line" smooth="yes"/>
      <point x="588" y="51"/>
      <point x="560.0" y="78.0"/>
      <point x="539.0" y="113.0" type="curve" smooth="yes"/>
      <point x="472.0" y="224.0"/>
      <point x="386.0" y="313.0"/>
      <point x="289.0" y="390.0" type="curve"/>
      <point x="242.0" y="429.0"/>
      <point x="204.0" y="471.0"/>
      <point x="204.0" y="515.0" type="curve" smooth="yes"/>
      <point x="204.0" y="565.0"/>
      <point x="234.0" y="612.0"/>
      <point x="296.0" y="612.0" type="curve" smooth="yes"/>
      <point x="346.0" y="612.0"/>
      <point x="381.0" y="567.0"/>
      <point x="381.0" y="517.0" type="curve" smooth="yes"/>
      <point x="381.0" y="461.0"/>
      <point x="353.0" y="414.0"/>
      <point x="280.0" y="389.0" type="curve"/>
      <point x="302.0" y="363.0" type="line"/>
      <point x="383.0" y="384.0"/>
      <point x="446.0" y="435.0"/>
      <point x="446.0" y="518.0" type="curve" smooth="yes"/>
      <point x="446.0" y="601.0"/>
      <point x="380.0" y="649.0"/>
      <point x="297.0" y="649.0" type="curve" smooth="yes"/>
      <point x="200.0" y="649.0"/>
      <point x="123.0" y="590.0"/>
      <point x="123.0" y="493.0" type="curve" smooth="yes"/>
      <point x="123.0" y="439.0"/>
      <point x="164.0" y="382.0"/>
      <point x="210.0" y="345.0" type="curve" smooth="yes"/>
      <point x="313.0" y="262.0"/>
      <point x="383.0" y="198.0"/>
      <point x="452.0" y="86.0" type="curve" smooth="yes"/>
      <point x="497.0" y="13.0"/>
      <point x="560" y="-8"/>
    </contour>
    <contour>
      <point x="255" y="-15" type="curve" smooth="yes"/>
      <point x="350" y="-15"/>
      <point x="421" y="49"/>
      <point x="468" y="132" type="curve"/>
      <point x="444" y="156" type="line"/>
      <point x="404" y="86"/>
      <point x="343" y="53"/>
      <point x="263" y="53" type="curve" smooth="yes"/>
      <point x="186" y="53"/>
      <point x="132" y="107"/>
      <point x="132" y="184" type="curve" smooth="yes"/>
      <point x="132" y="261"/>
      <point x="181" y="320"/>
      <point x="255" y="340" type="curve"/>
      <point x="227" y="362" type="line"/>
      <point x="129" y="331"/>
      <point x="53" y="261"/>
      <point x="53" y="158" type="curve" smooth="yes"/>
      <point x="53" y="47"/>
      <point x="144" y="-15"/>
    </contour>
    <contour>
      <point x="505" y="155" type="line"/>
      <point x="641" y="405" type="line"/>
      <point x="596" y="374" type="line"/>
      <point x="686" y="390" type="line"/>
      <point x="686" y="427" type="line"/>
      <point x="479" y="427" type="line"/>
      <point x="479" y="390" type="line"/>
      <point x="580" y="374" type="line"/>
      <point x="561" y="407" type="line"/>
      <point x="483" y="182" type="line"/>
    </contour>
  </outline>
</glyph>
<glyph name="parenleft" format="1">
  <advance width="246"/>
  <unicode hex="0028"/>
  <outline>
    <contour>
      <point x="179" y="723" type="line"/>
      <point x="73" y="581"/>
      <point x="25" y="436"/>
      <point x="25" y="292" type="curve" smooth="yes"/>
      <point x="25" y="147"/>
      <point x="74" y="2"/>
      <point x="181" y="-141" type="curve"/>
      <point x="216" y="-124" type="line"/>
      <point x="134.87755102" y="14.0"/>
      <point x="110.0" y="154.0"/>
      <point x="110" y="294" type="curve" smooth="yes"/>
      <point x="110.0" y="432.0"/>
      <point x="133.852631579" y="571.0"/>
      <point x="213" y="707" type="curve"/>
    </contour>
  </outline>
</glyph>
<glyph name="hyphen" format="1">
  <advance width="301"/>
  <unicode hex="002D"/>
  <outline>
    <contour>
      <point x="272" y="205" type="line"/>
      <point x="272" y="275" type="line"/>
      <point x="37" y="275" type="line"/>
      <point x="37" y="205" type="line"/>
    </contour>
  </outline>
</glyph>
<glyph name="period" format="1">
  <advance width="223"/>
  <unicode hex="002E"/>
  <outline>
    <contour>
      <point x="111" y="-10" type="curve" smooth="yes"/>
      <point x="148" y="-10"/>
      <point x="173" y="16"/>
      <point x="173" y="53" type="curve" smooth="yes"/>
      <point x="173" y="90"/>
      <point x="148" y="115"/>
      <point x="111" y="115" type="curve" smooth="yes"/>
      <point x="75" y="115"/>
      <point x="50" y="89"/>
      <point x="50" y="53" type="curve" smooth="yes"/>
      <point x="50" y="16"/>
      <point x="74" y="-10"/>
    </contour>
  </outline>
</glyph>
<glyph name="slash" format="1">
  <advance width="420"/>
  <unicode hex="002F"/>
  <outline>
    <contour>
      <point x="-4" y="-176" type="line"/>
      <point x="33" y="-176" type="line"/>
      <point x="431" y="751" type="line"/>
      <point x="425" y="759" type="line"/>
      <point x="388" y="759" type="line"/>
      <point x="-10" y="-168" type="line"/>
    </contour>
  </outline>
</glyph>
<glyph name="zero" format="1">
  <advance width="567"/>
  <unicode hex="0030"/>
  <outline>
    <contour>
      <point x="286" y="43" type="curve" smooth="yes"/>
      <point x="183" y="43"/>
      <point x="126" y="131"/>
      <point x="126" y="234" type="curve" smooth="yes"/>
      <point x="126" y="338"/>
      <point x="176" y="435"/>
      <point x="280" y="435" type="curve" smooth="yes"/>
      <point x="383" y="435"/>
      <point x="442" y="347"/>
      <point x="442" y="244" type="curve" smooth="yes"/>
      <point x="442" y="139"/>
      <point x="391" y="43"/>
    </contour>
    <contour>
      <point x="272" y="-16" type="curve" smooth="yes"/>
      <point x="421" y="-16"/>
      <point x="521" y="96"/>
      <point x="521" y="245" type="curve" smooth="yes"/>
      <point x="521" y="384"/>
      <point x="433" y="494"/>
      <point x="294" y="494" type="curve" smooth="yes"/>
      <point x="145" y="494"/>
      <point x="45" y="382"/>
      <point x="45" y="233" type="curve" smooth="yes"/>
      <point x="45" y="94"/>
      <point x="133" y="-16"/>
    </contour>
  </outline>
</glyph>
<glyph name="one" format="1">
  <advance width="363"/>
  <unicode hex="0031"/>
  <outline>
    <contour>
      <point x="44" y="0" type="line"/>
      <point x="340" y="0" type="line"/>
      <point x="340" y="41" type="line"/>
      <point x="208" y="54" type="line"/>
      <point x="238" y="21" type="line"/>
      <point x="238" y="494" type="line"/>
      <point x="27" y="441" type="line"/>
      <point x="27" y="405" type="line"/>
      <point x="153" y="405" type="line"/>
      <point x="153" y="21" type="line"/>
      <point x="183" y="54" type="line"/>
      <point x="44" y="41" type="line"/>
    </contour>
  </outline>
</glyph>
<glyph name="three" format="1">
  <advance width="463"/>
  <unicode hex="0033"/>
  <outline>
    <contour>
      <point x="194" y="-150" type="curve" smooth="yes"/>
      <point x="312" y="-150"/>
      <point x="411" y="-87"/>
      <point x="411" y="31" type="curve" smooth="yes"/>
      <point x="411" y="133"/>
      <point x="327" y="191"/>
      <point x="195" y="197" type="curve"/>
      <point x="195" y="186" type="line"/>
      <point x="312" y="205"/>
      <point x="391" y="266"/>
      <point x="391" y="354" type="curve" smooth="yes"/>
      <point x="391" y="441"/>
      <point x="321" y="494"/>
      <point x="227" y="494" type="curve" smooth="yes"/>
      <point x="148" y="494"/>
      <point x="70" y="450"/>
      <point x="25" y="381" type="curve"/>
      <point x="51" y="349" type="line"/>
      <point x="85" y="381"/>
      <point x="137" y="426"/>
      <point x="207" y="426" type="curve" smooth="yes"/>
      <point x="261" y="426"/>
      <point x="303" y="403"/>
      <point x="303" y="349" type="curve" smooth="yes"/>
      <point x="303" y="252"/>
      <point x="206" y="223"/>
      <point x="113" y="195" type="curve"/>
      <point x="113" y="151" type="line"/>
      <point x="219" y="150"/>
      <point x="326" y="128"/>
      <point x="326" y="22" type="curve" smooth="yes"/>
      <point x="326" y="-49"/>
      <point x="270" y="-91"/>
      <point x="199" y="-91" type="curve" smooth="yes"/>
      <point x="163" y="-91"/>
      <point x="130" y="-72"/>
      <point x="107" y="-43" type="curve" smooth="yes"/>
      <point x="70" y="5" type="line"/>
      <point x="45" y="-12"/>
      <point x="29" y="-34"/>
      <point x="29" y="-63" type="curve" smooth="yes"/>
      <point x="29" y="-100"/>
      <point x="83" y="-150"/>
    </contour>
  </outline>
</glyph>
<glyph name="five" format="1">
  <advance width="452"/>
  <unicode hex="0035"/>
  <outline>
    <contour>
      <point x="184.0" y="-150.0" type="curve" smooth="yes"/>
      <point x="302.0" y="-150.0"/>
      <point x="407.0" y="-65.0"/>
      <point x="407.0" y="60.0" type="curve" smooth="yes"/>
      <point x="407.0" y="185.0"/>
      <point x="315" y="239"/>
      <point x="192" y="248" type="curve" smooth="yes"/>
      <point x="111.0" y="254.0" type="line"/>
      <point x="123.0" y="233.0" type="line"/>
      <point x="138.0" y="402.0" type="line"/>
      <point x="392.0" y="402.0" type="line"/>
      <point x="402.0" y="483.0" type="line"/>
      <point x="93.0" y="483.0" type="line"/>
      <point x="60" y="171" type="line"/>
      <point x="166" y="163" type="line" smooth="yes"/>
      <point x="264" y="156"/>
      <point x="328.0" y="118.0"/>
      <point x="328.0" y="31.0" type="curve" smooth="yes"/>
      <point x="328.0" y="-51.0"/>
      <point x="260.0" y="-107.0"/>
      <point x="194.0" y="-107.0" type="curve" smooth="yes"/>
      <point x="154.0" y="-107.0"/>
      <point x="123.0" y="-93.0"/>
      <point x="99.0" y="-61.0" type="curve" smooth="yes"/>
      <point x="59.0" y="-7.0" type="line"/>
      <point x="33.0" y="-12.0"/>
      <point x="19.0" y="-30.0"/>
      <point x="19.0" y="-56.0" type="curve" smooth="yes"/>
      <point x="19.0" y="-100.0"/>
      <point x="73.0" y="-150.0"/>
    </contour>
  </outline>
</glyph>
<glyph name="seven" format="1">
  <advance width="479"/>
  <unicode hex="0037"/>
  <outline>
    <contour>
      <point x="100" y="-118" type="line"/>
      <point x="191" y="-118" type="line"/>
      <point x="447" y="459" type="line"/>
      <point x="447" y="484" type="line"/>
      <point x="35" y="484" type="line"/>
      <point x="23" y="298" type="line"/>
      <point x="63" y="298" type="line"/>
      <point x="97" y="387" type="line" smooth="yes"/>
      <point x="104" y="406"/>
      <point x="113" y="417"/>
      <point x="132" y="417" type="curve" smooth="yes"/>
      <point x="385" y="417" type="line"/>
      <point x="368" y="444" type="line"/>
      <point x="100" y="-115" type="line"/>
    </contour>
  </outline>
</glyph>
<glyph name="eight" format="1">
  <advance width="531"/>
  <unicode hex="0038"/>
  <outline>
    <contour>
      <point x="316" y="323" type="line"/>
      <point x="388" y="357"/>
      <point x="444" y="416"/>
      <point x="444" y="483" type="curve" smooth="yes"/>
      <point x="444" y="579"/>
      <point x="364" y="628"/>
      <point x="268" y="628" type="curve" smooth="yes"/>
      <point x="170" y="628"/>
      <point x="92" y="570"/>
      <point x="92" y="472" type="curve" smooth="yes"/>
      <point x="92" y="419"/>
      <point x="123" y="358"/>
      <point x="210" y="311" type="curve" smooth="yes"/>
      <point x="262" y="283" type="line" smooth="yes"/>
      <point x="325" y="249"/>
      <point x="387" y="221"/>
      <point x="387" y="155" type="curve" smooth="yes"/>
      <point x="387" y="83"/>
      <point x="332" y="38"/>
      <point x="266" y="38" type="curve" smooth="yes"/>
      <point x="195" y="38"/>
      <point x="148" y="97"/>
      <point x="148" y="168" type="curve" smooth="yes"/>
      <point x="148" y="231"/>
      <point x="188" y="293"/>
      <point x="244" y="308" type="curve"/>
      <point x="216" y="332" type="line"/>
      <point x="134" y="301"/>
      <point x="57" y="246"/>
      <point x="57" y="154" type="curve" smooth="yes"/>
      <point x="57" y="44"/>
      <point x="153" y="-16"/>
      <point x="263" y="-16" type="curve" smooth="yes"/>
      <point x="375" y="-16"/>
      <point x="477" y="53"/>
      <point x="477" y="163" type="curve" smooth="yes"/>
      <point x="477" y="254"/>
      <point x="402" y="305"/>
      <point x="339" y="333" type="curve" smooth="yes"/>
      <point x="278" y="360" type="line" smooth="yes"/>
      <point x="242" y="376"/>
      <point x="172" y="418"/>
      <point x="172" y="484" type="curve" smooth="yes"/>
      <point x="172" y="541"/>
      <point x="211" y="580"/>
      <point x="268" y="580" type="curve" smooth="yes"/>
      <point x="323" y="580"/>
      <point x="357" y="538"/>
      <point x="357" y="483" type="curve" smooth="yes"/>
      <point x="357" y="430"/>
      <point x="339" y="378"/>
      <point x="287" y="346" type="curve"/>
    </contour>
  </outline>
</glyph>
<glyph name="less" format="1">
  <advance width="472"/>
  <unicode hex="003C"/>
  <outline>
    <contour>
      <point x="79" y="241" type="line"/>
      <point x="79" y="257" type="line"/>
      <point x="437" y="418" type="line"/>
      <point x="437" y="468" type="line"/>
      <point x="35" y="285" type="line"/>
      <point x="35" y="214" type="line"/>
      <point x="437" y="31" type="line"/>
      <point x="437" y="80" type="line"/>
    </contour>
  </outline>
</glyph>
<glyph name="greater" format="1">
  <advance width="472"/>
  <unicode hex="003E"/>
  <outline>
    <contour>
      <point x="35" y="80" type="line"/>
      <point x="35" y="31" type="line"/>
      <point x="437" y="214" type="line"/>
      <point x="437" y="285" type="line"/>
      <point x="35" y="468" type="line"/>
      <point x="35" y="418" type="line"/>
      <point x="393" y="257" type="line"/>
      <point x="393" y="241" type="line"/>
    </contour>
  </outline>
</glyph>
<glyph name="question" format="1">
  <advance width="365"/>
  <unicode hex="003F"/>
  <outline>
    <contour>
      <point x="150" y="-10" type="curve" smooth="yes"/>
      <point x="187" y="-10"/>
      <point x="212" y="16"/>
      <point x="212" y="53" type="curve" smooth="yes"/>
      <point x="212" y="90"/>
      <point x="187" y="115"/>
      <point x="150" y="115" type="curve" smooth="yes"/>
      <point x="114" y="115"/>
      <point x="89" y="89"/>
      <point x="89" y="53" type="curve" smooth="yes"/>
      <point x="89" y="16"/>
      <point x="113" y="-10"/>
    </contour>
    <contour>
      <point x="127" y="221" type="line"/>
      <point x="161" y="221" type="line"/>
      <point x="161" y="308" type="line" smooth="yes"/>
      <point x="161" y="325"/>
      <point x="172.00000000000003" y="332.0"/>
      <point x="189" y="332" type="curve" smooth="yes"/>
      <point x="265.71794871794873" y="332.0"/>
      <point x="325.0" y="380.0"/>
      <point x="325" y="474" type="curve" smooth="yes"/>
      <point x="325" y="595"/>
      <point x="239" y="673"/>
      <point x="124" y="673" type="curve" smooth="yes"/>
      <point x="54.0" y="673.0"/>
      <point x="30.0" y="646.370786516854"/>
      <point x="44" y="594" type="curve"/>
      <point x="70.0" y="597.0"/>
      <point x="96.0" y="598.0"/>
      <point x="112" y="598" type="curve" smooth="yes"/>
      <point x="182.88888888888889" y="598.0"/>
      <point x="257.0" y="556.0"/>
      <point x="257" y="465" type="curve" smooth="yes"/>
      <point x="257.0" y="391.0"/>
      <point x="204.1304347826087" y="381.0"/>
      <point x="162" y="381" type="curve" smooth="yes"/>
      <point x="138.0" y="381.0"/>
      <point x="124.0" y="382.0"/>
      <point x="100" y="385" type="curve"/>
    </contour>
  </outline>
</glyph>
<glyph name="at" format="1">
  <advance width="767"/>
  <unicode hex="0040"/>
  <outline>
    <contour>
      <point x="481" y="379" type="line"/>
      <point x="442" y="172" type="line" smooth="yes"/>
      <point x="428" y="99"/>
      <point x="442" y="74"/>
      <point x="496" y="74" type="curve" smooth="yes"/>
      <point x="614" y="74"/>
      <point x="717" y="162"/>
      <point x="717" y="316" type="curve" smooth="yes"/>
      <point x="717" y="480"/>
      <point x="585" y="577"/>
      <point x="421" y="577" type="curve" smooth="yes"/>
      <point x="213" y="577"/>
      <point x="50" y="413"/>
      <point x="50" y="204" type="curve" smooth="yes"/>
      <point x="50" y="24"/>
      <point x="173" y="-97"/>
      <point x="356" y="-97" type="curve" smooth="yes"/>
      <point x="438" y="-97"/>
      <point x="511" y="-78"/>
      <point x="561" y="-44" type="curve"/>
      <point x="550" y="3" type="line"/>
      <point x="506" y="-26"/>
      <point x="447" y="-41"/>
      <point x="382" y="-41" type="curve" smooth="yes"/>
      <point x="224" y="-41"/>
      <point x="125" y="56"/>
      <point x="125" y="213" type="curve" smooth="yes"/>
      <point x="125" y="396"/>
      <point x="245" y="528"/>
      <point x="428" y="528" type="curve" smooth="yes"/>
      <point x="559" y="528"/>
      <point x="656" y="440"/>
      <point x="656" y="309" type="curve" smooth="yes"/>
      <point x="656" y="204"/>
      <point x="601" y="130"/>
      <point x="520" y="126" type="curve" smooth="yes"/>
      <point x="500" y="125"/>
      <point x="494" y="137"/>
      <point x="500" y="165" type="curve" smooth="yes"/>
      <point x="551" y="418" type="line"/>
      <point x="510" y="393" type="line"/>
      <point x="510" y="393"/>
      <point x="490" y="415"/>
      <point x="446" y="415" type="curve" smooth="yes"/>
      <point x="353" y="415"/>
      <point x="245" y="282"/>
      <point x="245" y="166" type="curve" smooth="yes"/>
      <point x="245" y="113"/>
      <point x="271" y="74"/>
      <point x="307" y="74" type="curve" smooth="yes"/>
      <point x="350" y="74"/>
      <point x="407" y="126"/>
      <point x="462" y="215" type="curve"/>
      <point x="471" y="269" type="line"/>
      <point x="412" y="188"/>
      <point x="360" y="136"/>
      <point x="338" y="136" type="curve" smooth="yes"/>
      <point x="326" y="136"/>
      <point x="319" y="150"/>
      <point x="319" y="175" type="curve" smooth="yes"/>
      <point x="319" y="280"/>
      <point x="370" y="380"/>
      <point x="423" y="380" type="curve" smooth="yes"/>
      <point x="447" y="380"/>
      <point x="473" y="373"/>
      <point x="490" y="362" type="curve"/>
    </contour>
  </outline>
</glyph>
<glyph name="A" format="1">
  <advance width="639"/>
  <unicode hex="0041"/>
  <outline>
    <contour>
      <point x="-15" y="0" type="line"/>
      <point x="233" y="0" type="line"/>
      <point x="233" y="51" type="line"/>
      <point x="98" y="64" type="line"/>
      <point x="119" y="29" type="line"/>
      <point x="307" y="599" type="line"/>
      <point x="288" y="599" type="line"/>
      <point x="485" y="29" type="line"/>
      <point x="505" y="64" type="line"/>
      <point x="368" y="51" type="line"/>
      <point x="368" y="0" type="line"/>
      <point x="654" y="0" type="line"/>
      <point x="654" y="51" type="line"/>
      <point x="542" y="65" type="line"/>
      <point x="582" y="29" type="line"/>
      <point x="355" y="652" type="line"/>
      <point x="266" y="642" type="line"/>
      <point x="48" y="29" type="line"/>
      <point x="88" y="66" type="line"/>
      <point x="-15" y="51" type="line"/>
    </contour>
    <contour>
      <point x="153" y="218" type="line"/>
      <point x="445" y="218" type="line"/>
      <point x="445" y="270" type="line"/>
      <point x="153" y="270" type="line"/>
    </contour>
    <contour>
      <point x="298" y="642" type="move" name="topuc"/>
    </contour>
    <contour>
      <point x="530" y="0" type="move" name="ogonek"/>
    </contour>
  </outline>
</glyph>
<glyph name="E" format="1">
  <advance width="574"/>
  <unicode hex="0045"/>
  <outline>
    <contour>
      <point x="26" y="0" type="line"/>
      <point x="501" y="0" type="line"/>
      <point x="545" y="212" type="line"/>
      <point x="496" y="212" type="line"/>
      <point x="453" y="122" type="line" smooth="yes"/>
      <point x="429" y="70"/>
      <point x="418" y="60"/>
      <point x="370" y="57" type="curve" smooth="yes"/>
      <point x="284" y="52" type="line" smooth="yes"/>
      <point x="230" y="49"/>
      <point x="220" y="62"/>
      <point x="220" y="110" type="curve" smooth="yes"/>
      <point x="220" y="309" type="line"/>
      <point x="424" y="306" type="line"/>
      <point x="434" y="369" type="line"/>
      <point x="220" y="366" type="line"/>
      <point x="220" y="583" type="line"/>
      <point x="475" y="583" type="line"/>
      <point x="428" y="612" type="line"/>
      <point x="460" y="461" type="line"/>
      <point x="509" y="461" type="line"/>
      <point x="509" y="652" type="line"/>
      <point x="443" y="642" type="line"/>
      <point x="26" y="642" type="line"/>
      <point x="26" y="592" type="line"/>
      <point x="164" y="579" type="line"/>
      <point x="134" y="622" type="line"/>
      <point x="134" y="21" type="line"/>
      <point x="164" y="64" type="line"/>
      <point x="26" y="51" type="line"/>
    </contour>
    <contour>
      <point x="313.0" y="642.0" type="move" name="topuc"/>
    </contour>
    <contour>
      <point x="287.0" y="0.0" type="move" name="bottom"/>
    </contour>
    <contour>
      <point x="427.0" y="0.0" type="move" name="ogonek"/>
    </contour>
  </outline>
</glyph>
<glyph name="F" format="1">
  <advance width="519"/>
  <unicode hex="0046"/>
  <outline>
    <contour>
      <point x="26" y="0" type="line"/>
      <point x="349" y="0" type="line"/>
      <point x="349" y="51" type="line"/>
      <point x="190" y="64" type="line"/>
      <point x="220" y="31" type="line"/>
      <point x="220" y="309" type="line"/>
      <point x="403" y="306" type="line"/>
      <point x="413" y="369" type="line"/>
      <point x="220" y="366" type="line"/>
      <point x="220" y="583" type="line"/>
      <point x="455" y="583" type="line"/>
      <point x="408" y="612" type="line"/>
      <point x="440" y="461" type="line"/>
      <point x="489" y="461" type="line"/>
      <point x="489" y="652" type="line"/>
      <point x="423" y="642" type="line"/>
      <point x="26" y="642" type="line"/>
      <point x="26" y="591" type="line"/>
      <point x="164" y="578" type="line"/>
      <point x="134" y="621" type="line"/>
      <point x="134" y="21" type="line"/>
      <point x="164" y="64" type="line"/>
      <point x="26" y="51" type="line"/>
    </contour>
  </outline>
</glyph>
<glyph name="I" format="1">
  <advance width="355"/>
  <unicode hex="0049"/>
  <outline>
    <contour>
      <point x="26" y="0" type="line"/>
      <point x="329" y="0" type="line"/>
      <point x="329" y="51" type="line"/>
      <point x="190" y="64" type="line"/>
      <point x="220" y="31" type="line"/>
      <point x="220" y="611" type="line"/>
      <point x="190" y="578" type="line"/>
      <point x="329" y="591" type="line"/>
      <point x="329" y="642" type="line"/>
      <point x="26" y="642" type="line"/>
      <point x="26" y="591" type="line"/>
      <point x="164" y="578" type="line"/>
      <point x="134" y="611" type="line"/>
      <point x="134" y="31" type="line"/>
      <point x="164" y="64" type="line"/>
      <point x="26" y="51" type="line"/>
    </contour>
    <contour>
      <point x="177.0" y="642" type="move" name="topuc"/>
    </contour>
    <contour>
      <point x="210" y="0" type="move" name="ogonek"/>
    </contour>
    <contour>
      <point x="177" y="0" type="move" name="bottom"/>
    </contour>
  </outline>
</glyph>
<glyph name="N" format="1">
  <advance width="771"/>
  <unicode hex="004E"/>
  <outline>
    <contour>
      <point x="26" y="0" type="line"/>
      <point x="316" y="0" type="line"/>
      <point x="316" y="51" type="line"/>
      <point x="176" y="64" type="line"/>
      <point x="207" y="27" type="line"/>
      <point x="195" y="577" type="line"/>
      <point x="175" y="571" type="line"/>
      <point x="626" y="-22" type="line"/>
      <point x="651" y="-14" type="line"/>
      <point x="651" y="615" type="line"/>
      <point x="621" y="577" type="line"/>
      <point x="749" y="591" type="line"/>
      <point x="749" y="642" type="line"/>
      <point x="469" y="642" type="line"/>
      <point x="469" y="591" type="line"/>
      <point x="609" y="578" type="line"/>
      <point x="578" y="615" type="line"/>
      <point x="588" y="141" type="line"/>
      <point x="605" y="147" type="line"/>
      <point x="230" y="642" type="line"/>
      <point x="26" y="642" type="line"/>
      <point x="26" y="591" type="line"/>
      <point x="164" y="578" type="line"/>
      <point x="134" y="625" type="line"/>
      <point x="134" y="27" type="line"/>
      <point x="164" y="65" type="line"/>
      <point x="26" y="51" type="line"/>
    </contour>
    <contour>
      <point x="385.0" y="642.0" type="move" name="topuc"/>
    </contour>
    <contour>
      <point x="385.0" y="0.0" type="move" name="bottom"/>
    </contour>
  </outline>
</glyph>
<glyph name="Q" format="1">
  <advance width="730"/>
  <unicode hex="0051"/>
  <outline>
    <contour>
      <point x="437" y="1" type="line"/>
      <point x="562" y="-114" type="line" smooth="yes"/>
      <point x="609" y="-157"/>
      <point x="652" y="-167"/>
      <point x="703" y="-167" type="curve" smooth="yes"/>
      <point x="741" y="-167"/>
      <point x="779" y="-153"/>
      <point x="810" y="-129" type="curve"/>
      <point x="805" y="-92" type="line"/>
      <point x="732" y="-104"/>
      <point x="663" y="-88"/>
      <point x="600" y="-51" type="curve" smooth="yes"/>
      <point x="433" y="48" type="line"/>
    </contour>
    <component base="O"/>
  </outline>
</glyph>
<glyph name="R" format="1">
  <advance width="625"/>
  <unicode hex="0052"/>
  <outline>
    <contour>
      <point x="26" y="0" type="line"/>
      <point x="339" y="0" type="line"/>
      <point x="339" y="51" type="line"/>
      <point x="190" y="64" type="line"/>
      <point x="220" y="31" type="line"/>
      <point x="220" y="294" type="line"/>
      <point x="275" y="294" type="line" smooth="yes"/>
      <point x="402" y="294"/>
      <point x="514" y="357"/>
      <point x="514" y="479" type="curve" smooth="yes"/>
      <point x="514" y="580"/>
      <point x="427" y="645"/>
      <point x="296" y="644" type="curve" smooth="yes"/>
      <point x="26" y="642" type="line"/>
      <point x="26" y="591" type="line"/>
      <point x="164" y="578" type="line"/>
      <point x="134" y="615" type="line"/>
      <point x="134" y="31" type="line"/>
      <point x="164" y="64" type="line"/>
      <point x="26" y="51" type="line"/>
    </contour>
    <contour>
      <point x="568" y="-7" type="curve" smooth="yes"/>
      <point x="586" y="-7"/>
      <point x="628" y="-5"/>
      <point x="648" y="0" type="curve"/>
      <point x="648" y="35" type="line"/>
      <point x="605" y="40"/>
      <point x="565" y="57"/>
      <point x="533" y="105" type="curve" smooth="yes"/>
      <point x="377" y="339" type="line"/>
      <point x="321" y="307" type="line"/>
      <point x="455" y="47" type="line" smooth="yes"/>
      <point x="474" y="11"/>
      <point x="518" y="-7"/>
    </contour>
    <contour>
      <point x="252" y="339" type="curve" smooth="yes"/>
      <point x="225" y="341"/>
      <point x="220" y="350"/>
      <point x="220" y="375" type="curve" smooth="yes"/>
      <point x="220" y="595" type="line"/>
      <point x="276" y="595" type="line" smooth="yes"/>
      <point x="350" y="595"/>
      <point x="416" y="553"/>
      <point x="416" y="478" type="curve" smooth="yes"/>
      <point x="416" y="383"/>
      <point x="361" y="331"/>
    </contour>
    <contour>
      <point x="295.0" y="642.0" type="move" name="topuc"/>
    </contour>
    <contour>
      <point x="361.0" y="0.0" type="move" name="bottom"/>
    </contour>
  </outline>
</glyph>
<glyph name="S" format="1">
  <advance width="499"/>
  <unicode hex="0053"/>
  <outline>
    <contour>
      <point x="231" y="-15" type="curve" smooth="yes"/>
      <point x="390" y="-15"/>
      <point x="453" y="86"/>
      <point x="453" y="165" type="curve" smooth="yes"/>
      <point x="453" y="280"/>
      <point x="370" y="323"/>
      <point x="289" y="360" type="curve" smooth="yes"/>
      <point x="216" y="394"/>
      <point x="145" y="422"/>
      <point x="145" y="499" type="curve" smooth="yes"/>
      <point x="145" y="570"/>
      <point x="211" y="598"/>
      <point x="265" y="598" type="curve" smooth="yes"/>
      <point x="298" y="598"/>
      <point x="327" y="591"/>
      <point x="375" y="568" type="curve"/>
      <point x="331" y="608" type="line"/>
      <point x="384" y="432" type="line"/>
      <point x="433" y="432" type="line"/>
      <point x="427" y="646" type="line"/>
      <point x="356" y="634" type="line"/>
      <point x="329" y="641"/>
      <point x="297" y="647"/>
      <point x="264" y="647" type="curve" smooth="yes"/>
      <point x="175" y="647"/>
      <point x="66" y="608"/>
      <point x="66" y="479" type="curve" smooth="yes"/>
      <point x="66" y="360"/>
      <point x="156" y="319"/>
      <point x="238" y="281" type="curve" smooth="yes"/>
      <point x="307" y="249"/>
      <point x="371" y="220"/>
      <point x="371" y="147" type="curve" smooth="yes"/>
      <point x="371" y="81"/>
      <point x="329" y="32"/>
      <point x="239" y="32" type="curve" smooth="yes"/>
      <point x="191" y="32"/>
      <point x="153" y="47"/>
      <point x="126" y="119" type="curve" smooth="yes"/>
      <point x="95" y="202" type="line"/>
      <point x="46" y="202" type="line"/>
      <point x="70" y="16" type="line"/>
      <point x="110" y="-3"/>
      <point x="175" y="-15"/>
    </contour>
    <contour>
      <point x="264" y="642" type="move" name="topuc"/>
    </contour>
    <contour>
      <point x="232" y="0" type="move" name="bottom"/>
    </contour>
  </outline>
</glyph>
<glyph name="T" format="1">
  <advance width="590"/>
  <unicode hex="0054"/>
  <outline>
    <contour>
      <point x="124" y="0" type="line"/>
      <point x="467" y="0" type="line"/>
      <point x="467" y="51" type="line"/>
      <point x="308" y="64" type="line"/>
      <point x="338" y="27" type="line"/>
      <point x="338" y="583" type="line"/>
      <point x="531" y="583" type="line"/>
      <point x="496" y="613" type="line"/>
      <point x="535" y="434" type="line"/>
      <point x="584" y="434" type="line"/>
      <point x="565" y="652" type="line"/>
      <point x="500" y="642" type="line"/>
      <point x="89" y="642" type="line"/>
      <point x="25" y="652" type="line"/>
      <point x="6" y="434" type="line"/>
      <point x="55" y="434" type="line"/>
      <point x="94" y="613" type="line"/>
      <point x="59" y="583" type="line"/>
      <point x="252" y="583" type="line"/>
      <point x="252" y="27" type="line"/>
      <point x="282" y="64" type="line"/>
      <point x="124" y="51" type="line"/>
    </contour>
    <contour>
      <point x="295" y="642" type="move" name="topuc"/>
    </contour>
    <contour>
      <point x="295" y="0" type="move" name="bottom"/>
    </contour>
  </outline>
</glyph>
<glyph name="U" format="1">
  <advance width="739"/>
  <unicode hex="0055"/>
  <outline>
    <contour>
      <point x="373" y="-15" type="curve" smooth="yes"/>
      <point x="546" y="-15"/>
      <point x="628" y="108"/>
      <point x="627" y="239" type="curve" smooth="yes"/>
      <point x="625" y="615" type="line"/>
      <point x="595" y="578" type="line"/>
      <point x="723" y="591" type="line"/>
      <point x="723" y="642" type="line"/>
      <point x="440" y="642" type="line"/>
      <point x="440" y="591" type="line"/>
      <point x="591" y="579" type="line"/>
      <point x="561" y="615" type="line"/>
      <point x="563" y="287" type="line" smooth="yes"/>
      <point x="564" y="120"/>
      <point x="501" y="49"/>
      <point x="374" y="49" type="curve" smooth="yes"/>
      <point x="235" y="49"/>
      <point x="200" y="147"/>
      <point x="200" y="272" type="curve" smooth="yes"/>
      <point x="200" y="615" type="line"/>
      <point x="170" y="578" type="line"/>
      <point x="319" y="591" type="line"/>
      <point x="319" y="642" type="line"/>
      <point x="16" y="642" type="line"/>
      <point x="16" y="591" type="line"/>
      <point x="144" y="578" type="line"/>
      <point x="114" y="615" type="line"/>
      <point x="114" y="228" type="line" smooth="yes"/>
      <point x="114" y="99"/>
      <point x="181" y="-15"/>
    </contour>
    <contour>
      <point x="379" y="642" type="move" name="topuc"/>
    </contour>
    <contour>
      <point x="373" y="0" type="move" name="bottom"/>
    </contour>
    <contour>
      <point x="420" y="0" type="move" name="ogonek"/>
    </contour>
  </outline>
</glyph>
<glyph name="W" format="1">
  <advance width="977"/>
  <unicode hex="0057"/>
  <outline>
    <contour>
      <point x="260" y="-14" type="line"/>
      <point x="322" y="-14" type="line"/>
      <point x="495" y="535" type="line"/>
      <point x="477" y="535" type="line"/>
      <point x="650" y="-14" type="line"/>
      <point x="712" y="-14" type="line"/>
      <point x="920" y="613" type="line"/>
      <point x="881" y="577" type="line"/>
      <point x="977" y="591" type="line"/>
      <point x="977" y="642" type="line"/>
      <point x="704" y="642" type="line"/>
      <point x="704" y="591" type="line"/>
      <point x="864" y="579" type="line"/>
      <point x="842" y="614" type="line"/>
      <point x="688" y="61" type="line"/>
      <point x="714" y="61" type="line"/>
      <point x="540" y="642" type="line"/>
      <point x="466" y="642" type="line"/>
      <point x="287" y="52" type="line"/>
      <point x="323" y="52" type="line"/>
      <point x="162" y="614" type="line"/>
      <point x="140" y="579" type="line"/>
      <point x="302" y="591" type="line"/>
      <point x="302" y="642" type="line"/>
      <point x="-10" y="642" type="line"/>
      <point x="-10" y="591" type="line"/>
      <point x="96" y="577" type="line"/>
      <point x="57" y="614" type="line"/>
    </contour>
    <contour>
      <point x="503" y="642" type="move" name="topuc"/>
    </contour>
  </outline>
</glyph>
<glyph name="Y" format="1">
  <advance width="618"/>
  <unicode hex="0059"/>
  <outline>
    <contour>
      <point x="142" y="0" type="line"/>
      <point x="469" y="0" type="line"/>
      <point x="469" y="51" type="line"/>
      <point x="320" y="64" type="line"/>
      <point x="350" y="27" type="line"/>
      <point x="350" y="252" type="line"/>
      <point x="564" y="611" type="line"/>
      <point x="519" y="577" type="line"/>
      <point x="628" y="591" type="line"/>
      <point x="628" y="642" type="line"/>
      <point x="370" y="642" type="line"/>
      <point x="370" y="591" type="line"/>
      <point x="503" y="578" type="line"/>
      <point x="487" y="612" type="line"/>
      <point x="315" y="282" type="line"/>
      <point x="344" y="283" type="line"/>
      <point x="154" y="611" type="line"/>
      <point x="139" y="578" type="line"/>
      <point x="287" y="591" type="line"/>
      <point x="287" y="642" type="line"/>
      <point x="-10" y="642" type="line"/>
      <point x="-10" y="591" type="line"/>
      <point x="97" y="577" type="line"/>
      <point x="52" y="611" type="line"/>
      <point x="260" y="252" type="line"/>
      <point x="260" y="27" type="line"/>
      <point x="290" y="64" type="line"/>
      <point x="142" y="51" type="line"/>
    </contour>
    <contour>
      <point x="309" y="642" type="move" name="topuc"/>
    </contour>
    <contour>
      <point x="309" y="0" type="move" name="bottom"/>
    </contour>
  </outline>
</glyph>
<glyph name="Z" format="1">
  <advance width="567"/>
  <unicode hex="005A"/>
  <outline>
    <contour>
      <point x="374" y="63" type="curve" smooth="yes"/>
      <point x="128" y="60" type="line"/>
      <point x="126" y="37" type="line"/>
      <point x="524" y="616" type="line"/>
      <point x="524" y="642" type="line"/>
      <point x="122" y="642" type="line"/>
      <point x="57" y="652" type="line"/>
      <point x="51" y="439" type="line"/>
      <point x="100" y="439" type="line"/>
      <point x="143" y="582" type="line"/>
      <point x="428" y="582" type="line"/>
      <point x="418" y="605" type="line"/>
      <point x="26" y="40" type="line"/>
      <point x="26" y="0" type="line"/>
      <point x="505" y="0" type="line"/>
      <point x="549" y="212" type="line"/>
      <point x="500" y="212" type="line"/>
      <point x="457" y="125" type="line" smooth="yes"/>
      <point x="431" y="73"/>
      <point x="421" y="64"/>
    </contour>
    <contour>
      <point x="283" y="642" type="move" name="topuc"/>
    </contour>
  </outline>
</glyph>
<glyph name="backslash" format="1">
  <advance width="435"/>
  <unicode hex="005C"/>
  <outline>
    <contour>
      <point x="438" y="-168" type="line"/>
      <point x="40" y="759" type="line"/>
      <point x="3" y="759" type="line"/>
      <point x="-3" y="751" type="line"/>
      <point x="395" y="-176" type="line"/>
      <point x="432" y="-176" type="line"/>
    </contour>
  </outline>
</glyph>
<glyph name="asciicircum" format="1">
  <advance width="447"/>
  <unicode hex="005E"/>
  <outline>
    <contour>
      <point x="393" y="321" type="line"/>
      <point x="442" y="321" type="line"/>
      <point x="259" y="723" type="line"/>
      <point x="188" y="723" type="line"/>
      <point x="5" y="321" type="line"/>
      <point x="55" y="321" type="line"/>
      <point x="216" y="679" type="line"/>
      <point x="232" y="679" type="line"/>
    </contour>
  </outline>
</glyph>
<glyph name="grave" format="1">
  <advance width="258"/>
  <unicode hex="0060"/>
  <outline>
    <contour>
      <point x="141" y="660" type="line"/>
      <point x="51" y="664" type="line"/>
      <point x="51" y="657" type="line"/>
      <point x="192" y="494" type="line"/>
      <point x="218" y="508" type="line"/>
    </contour>
    <contour>
      <point x="187" y="444" type="move" name="_toplc"/>
    </contour>
  </outline>
</glyph>
<glyph name="a" format="1">
  <advance width="462"/>
  <unicode hex="0061"/>
  <outline>
    <contour>
      <point x="156" y="-7" type="curve" smooth="yes"/>
      <point x="201" y="-7"/>
      <point x="242" y="19"/>
      <point x="285" y="75" type="curve"/>
      <point x="287" y="75" type="line"/>
      <point x="297" y="18"/>
      <point x="321" y="-7"/>
      <point x="368" y="-7" type="curve" smooth="yes"/>
      <point x="405" y="-7"/>
      <point x="439" y="10"/>
      <point x="460" y="39" type="curve"/>
      <point x="455" y="64" type="line"/>
      <point x="428" y="54"/>
      <point x="415" y="51"/>
      <point x="400" y="51" type="curve" smooth="yes"/>
      <point x="380" y="51"/>
      <point x="367" y="67"/>
      <point x="367" y="91" type="curve" smooth="yes"/>
      <point x="367" y="314" type="line" smooth="yes"/>
      <point x="367" y="406"/>
      <point x="315" y="455"/>
      <point x="219" y="455" type="curve" smooth="yes"/>
      <point x="171" y="455"/>
      <point x="105" y="438"/>
      <point x="57" y="414" type="curve"/>
      <point x="57" y="356" type="line"/>
      <point x="111" y="373"/>
      <point x="167" y="383"/>
      <point x="207" y="383" type="curve" smooth="yes"/>
      <point x="264" y="383"/>
      <point x="287" y="360"/>
      <point x="287" y="301" type="curve" smooth="yes"/>
      <point x="287" y="248" type="line"/>
      <point x="171" y="229" type="line" smooth="yes"/>
      <point x="92" y="216"/>
      <point x="44" y="168"/>
      <point x="44" y="102" type="curve" smooth="yes"/>
      <point x="44" y="38"/>
      <point x="91" y="-7"/>
    </contour>
    <contour>
      <point x="184" y="61" type="curve" smooth="yes"/>
      <point x="147" y="61"/>
      <point x="124" y="81"/>
      <point x="124" y="113" type="curve" smooth="yes"/>
      <point x="124" y="150"/>
      <point x="150" y="176"/>
      <point x="194" y="183" type="curve" smooth="yes"/>
      <point x="287" y="199" type="line"/>
      <point x="287" y="113" type="line"/>
      <point x="257" y="83"/>
      <point x="214" y="61"/>
    </contour>
    <component base="space" xOffset="6"/>
    <contour>
      <point x="218.0" y="444.0" type="move" name="toplc"/>
    </contour>
    <contour>
      <point x="368.0" y="0.0" type="move" name="ogonek"/>
    </contour>
    <contour>
      <point x="231.0" y="0.0" type="move" name="bottom"/>
    </contour>
  </outline>
</glyph>
<glyph name="d" format="1">
  <advance width="518"/>
  <unicode hex="0064"/>
  <outline>
    <contour>
      <point x="346" y="-7" type="line"/>
      <point x="508" y="0" type="line"/>
      <point x="508" y="42" type="line"/>
      <point x="396" y="49" type="line"/>
      <point x="426" y="26" type="line"/>
      <point x="426" y="589" type="line"/>
      <point x="436" y="664" type="line"/>
      <point x="264" y="638" type="line"/>
      <point x="264" y="605" type="line"/>
      <point x="356" y="581" type="line"/>
      <point x="346" y="603" type="line"/>
    </contour>
    <contour>
      <point x="364" y="436" type="line"/>
      <point x="335" y="452"/>
      <point x="301" y="454"/>
      <point x="275" y="454" type="curve" smooth="yes"/>
      <point x="131" y="454"/>
      <point x="35" y="352"/>
      <point x="35" y="199" type="curve" smooth="yes"/>
      <point x="35" y="77"/>
      <point x="107" y="-7"/>
      <point x="207" y="-7" type="curve" smooth="yes"/>
      <point x="249" y="-7"/>
      <point x="293" y="7"/>
      <point x="335" y="51" type="curve" smooth="yes"/>
      <point x="364" y="82" type="line"/>
      <point x="356" y="120" type="line"/>
      <point x="333" y="99" type="line" smooth="yes"/>
      <point x="295" y="64"/>
      <point x="278" y="55"/>
      <point x="247" y="54" type="curve" smooth="yes"/>
      <point x="181" y="52"/>
      <point x="118" y="115"/>
      <point x="118" y="211" type="curve" smooth="yes"/>
      <point x="118" y="331"/>
      <point x="177" y="402"/>
      <point x="272" y="402" type="curve" smooth="yes"/>
      <point x="301" y="402"/>
      <point x="339" y="395"/>
      <point x="362" y="372" type="curve"/>
    </contour>
    <contour>
      <point x="446" y="664" type="move" name="right"/>
    </contour>
  </outline>
</glyph>
<glyph name="g" format="1">
  <advance width="465"/>
  <unicode hex="0067"/>
  <outline>
    <contour>
      <point x="239" y="189" type="curve" smooth="yes"/>
      <point x="189" y="181"/>
      <point x="152" y="220"/>
      <point x="143" y="279" type="curve" smooth="yes"/>
      <point x="133" y="345"/>
      <point x="153" y="402"/>
      <point x="205" y="410" type="curve" smooth="yes"/>
      <point x="257" y="417"/>
      <point x="292" y="371"/>
      <point x="301" y="309" type="curve" smooth="yes"/>
      <point x="309" y="247"/>
      <point x="289" y="196"/>
    </contour>
    <contour>
      <point x="189" y="-220" type="curve" smooth="yes"/>
      <point x="339" y="-220"/>
      <point x="446" y="-148"/>
      <point x="447" y="-47" type="curve" smooth="yes"/>
      <point x="448" y="15"/>
      <point x="404" y="52"/>
      <point x="327" y="56" type="curve" smooth="yes"/>
      <point x="166.0" y="64.0" type="line" smooth="yes"/>
      <point x="123" y="66"/>
      <point x="109" y="85"/>
      <point x="134" y="110" type="curve" smooth="yes"/>
      <point x="195" y="171" type="line"/>
      <point x="170" y="173" type="line"/>
      <point x="95" y="138"/>
      <point x="45.0" y="98.0"/>
      <point x="45.0" y="53.0" type="curve" smooth="yes"/>
      <point x="45.0" y="20.0"/>
      <point x="77" y="-10"/>
      <point x="157.0" y="-12.0" type="curve" smooth="yes"/>
      <point x="260" y="-14" type="line" smooth="yes"/>
      <point x="338" y="-16"/>
      <point x="373" y="-40"/>
      <point x="373" y="-82" type="curve" smooth="yes"/>
      <point x="373" y="-134"/>
      <point x="311" y="-173"/>
      <point x="234" y="-173" type="curve" smooth="yes"/>
      <point x="159" y="-173"/>
      <point x="121" y="-151"/>
      <point x="121" y="-109" type="curve" smooth="yes"/>
      <point x="121" y="-60"/>
      <point x="162.0" y="-20.0"/>
      <point x="220.0" y="-6.0" type="curve"/>
      <point x="165.0" y="-3.0" type="line"/>
      <point x="95.0" y="-18.0"/>
      <point x="38" y="-68"/>
      <point x="38" y="-123" type="curve" smooth="yes"/>
      <point x="38" y="-183"/>
      <point x="96" y="-220"/>
    </contour>
    <contour>
      <point x="213" y="144" type="curve" smooth="yes"/>
      <point x="309" y="144"/>
      <point x="388.0" y="198.0"/>
      <point x="388.0" y="298.0" type="curve" smooth="yes"/>
      <point x="388.0" y="352.0"/>
      <point x="366" y="397"/>
      <point x="332" y="424" type="curve"/>
      <point x="325" y="403" type="line"/>
      <point x="452" y="391" type="line"/>
      <point x="452" y="447" type="line"/>
      <point x="229" y="455" type="line" smooth="yes"/>
      <point x="133" y="458"/>
      <point x="54.0" y="394.0"/>
      <point x="54.0" y="291.0" type="curve" smooth="yes"/>
      <point x="54.0" y="197.0"/>
      <point x="126" y="144"/>
    </contour>
    <contour>
      <point x="229.0" y="444.0" type="move" name="toplc"/>
    </contour>
  </outline>
</glyph>
<glyph name="i" format="1">
  <advance width="274"/>
  <unicode hex="0069"/>
  <outline>
    <contour>
      <point x="126" y="538" type="curve" smooth="yes"/>
      <point x="159" y="538"/>
      <point x="181" y="560"/>
      <point x="181" y="593" type="curve" smooth="yes"/>
      <point x="181" y="626"/>
      <point x="159" y="647"/>
      <point x="126" y="647" type="curve" smooth="yes"/>
      <point x="94" y="647"/>
      <point x="72" y="625"/>
      <point x="72" y="593" type="curve" smooth="yes"/>
      <point x="72" y="560"/>
      <point x="93" y="538"/>
    </contour>
    <contour>
      <point x="25" y="0" type="line"/>
      <point x="249" y="0" type="line"/>
      <point x="249" y="41" type="line"/>
      <point x="147" y="55" type="line"/>
      <point x="177" y="21" type="line"/>
      <point x="177" y="380" type="line"/>
      <point x="187" y="455" type="line"/>
      <point x="25" y="444" type="line"/>
      <point x="25" y="411" type="line"/>
      <point x="124" y="364" type="line"/>
      <point x="97" y="407" type="line"/>
      <point x="97" y="21" type="line"/>
      <point x="127" y="55" type="line"/>
      <point x="25" y="41" type="line"/>
    </contour>
    <contour>
      <point x="206" y="0" type="move" name="ogonek"/>
    </contour>
    <contour>
      <point x="137" y="0" type="move" name="bottom"/>
    </contour>
  </outline>
</glyph>
<glyph name="k" format="1">
  <advance width="505"/>
  <unicode hex="006B"/>
  <outline>
    <contour>
      <point x="420" y="-7" type="line"/>
      <point x="520" y="-7" type="line"/>
      <point x="273" y="298" type="line"/>
      <point x="272" y="255" type="line"/>
      <point x="458" y="411" type="line"/>
      <point x="405" y="389" type="line"/>
      <point x="496" y="403" type="line"/>
      <point x="496" y="444" type="line"/>
      <point x="279" y="444" type="line"/>
      <point x="279" y="403" type="line"/>
      <point x="375" y="389" type="line"/>
      <point x="366" y="414" type="line"/>
      <point x="241" y="268" type="line"/>
      <point x="159" y="253" type="line"/>
      <point x="159" y="228" type="line"/>
      <point x="228" y="228" type="line"/>
    </contour>
    <contour>
      <point x="35" y="0" type="line"/>
      <point x="259" y="0" type="line"/>
      <point x="259" y="41" type="line"/>
      <point x="157" y="55" type="line"/>
      <point x="187" y="21" type="line"/>
      <point x="187" y="589" type="line"/>
      <point x="197" y="664" type="line"/>
      <point x="25" y="638" type="line"/>
      <point x="25" y="605" type="line"/>
      <point x="136" y="577" type="line"/>
      <point x="107" y="614" type="line"/>
      <point x="107" y="21" type="line"/>
      <point x="137" y="55" type="line"/>
      <point x="35" y="41" type="line"/>
    </contour>
    <contour>
      <point x="249" y="0" type="move" name="bottom"/>
    </contour>
  </outline>
</glyph>
<glyph name="o" format="1">
  <advance width="508"/>
  <unicode hex="006F"/>
  <outline>
    <contour>
      <point x="279" y="38" type="curve" smooth="yes"/>
      <point x="203" y="27"/>
      <point x="137" y="98"/>
      <point x="126" y="204" type="curve" smooth="yes"/>
      <point x="114" y="316"/>
      <point x="155" y="399"/>
      <point x="228" y="409" type="curve" smooth="yes"/>
      <point x="305" y="418"/>
      <point x="371" y="346"/>
      <point x="382" y="243" type="curve" smooth="yes"/>
      <point x="394" y="132"/>
      <point x="352" y="48"/>
    </contour>
    <contour>
      <point x="265" y="462" type="curve" smooth="yes"/>
      <point x="136" y="462"/>
      <point x="35" y="361"/>
      <point x="35" y="219" type="curve" smooth="yes"/>
      <point x="35" y="77"/>
      <point x="126" y="-15"/>
      <point x="243" y="-15" type="curve" smooth="yes"/>
      <point x="372" y="-15"/>
      <point x="473" y="92"/>
      <point x="473" y="229" type="curve" smooth="yes"/>
      <point x="473" y="366"/>
      <point x="382" y="462"/>
    </contour>
    <contour>
      <point x="251" y="444" type="move" name="toplc"/>
    </contour>
    <contour>
      <point x="243" y="0" type="move" name="bottom"/>
    </contour>
    <contour>
      <point x="330" y="421" type="move" name="right"/>
    </contour>
    <contour>
      <point x="290" y="0" type="move" name="ogonek"/>
    </contour>
  </outline>
</glyph>
<glyph name="s" format="1">
  <advance width="420"/>
  <unicode hex="0073"/>
  <outline>
    <contour>
      <point x="61" y="4" type="line"/>
      <point x="96" y="-9"/>
      <point x="150" y="-18"/>
      <point x="199" y="-18" type="curve" smooth="yes"/>
      <point x="302" y="-18"/>
      <point x="374" y="39"/>
      <point x="374" y="120" type="curve" smooth="yes"/>
      <point x="374" y="180"/>
      <point x="345" y="217"/>
      <point x="279" y="241" type="curve" smooth="yes"/>
      <point x="203" y="268" type="line" smooth="yes"/>
      <point x="154" y="286"/>
      <point x="132" y="309"/>
      <point x="132" y="345" type="curve" smooth="yes"/>
      <point x="132" y="384"/>
      <point x="163" y="408"/>
      <point x="215" y="408" type="curve" smooth="yes"/>
      <point x="244" y="408"/>
      <point x="274" y="400"/>
      <point x="306" y="385" type="curve"/>
      <point x="267" y="414" type="line"/>
      <point x="311" y="295" type="line"/>
      <point x="355" y="295" type="line"/>
      <point x="348" y="455" type="line"/>
      <point x="295" y="445" type="line"/>
      <point x="271" y="451"/>
      <point x="246" y="455"/>
      <point x="224" y="455" type="curve" smooth="yes"/>
      <point x="120" y="455"/>
      <point x="57" y="403"/>
      <point x="57" y="318" type="curve" smooth="yes"/>
      <point x="57" y="258"/>
      <point x="87" y="218"/>
      <point x="146" y="198" type="curve" smooth="yes"/>
      <point x="229" y="170" type="line" smooth="yes"/>
      <point x="278" y="153"/>
      <point x="293" y="136"/>
      <point x="293" y="98" type="curve" smooth="yes"/>
      <point x="293" y="56"/>
      <point x="258" y="29"/>
      <point x="206" y="29" type="curve" smooth="yes"/>
      <point x="158" y="29"/>
      <point x="136" y="39"/>
      <point x="124" y="66" type="curve" smooth="yes"/>
      <point x="85" y="151" type="line"/>
      <point x="47" y="151" type="line"/>
    </contour>
    <contour>
      <point x="205.0" y="444.0" type="move" name="toplc"/>
    </contour>
    <contour>
      <point x="205.0" y="0.0" type="move" name="bottom"/>
    </contour>
  </outline>
</glyph>
<glyph name="t" format="1">
  <advance width="321.0"/>
  <unicode hex="0074"/>
  <outline>
    <contour>
      <point x="183" y="-7" type="curve" smooth="yes"/>
      <point x="236" y="-7"/>
      <point x="293" y="19"/>
      <point x="324" y="55" type="curve"/>
      <point x="318" y="98" type="line"/>
      <point x="295" y="81"/>
      <point x="251" y="59"/>
      <point x="219" y="59" type="curve" smooth="yes"/>
      <point x="179" y="59"/>
      <point x="167" y="71"/>
      <point x="167" y="108" type="curve" smooth="yes"/>
      <point x="167" y="385" type="line"/>
      <point x="294" y="385" type="line"/>
      <point x="294" y="444" type="line"/>
      <point x="165" y="444" type="line"/>
      <point x="165" y="562" type="line"/>
      <point x="114" y="562" type="line"/>
      <point x="88" y="444" type="line"/>
      <point x="9" y="434" type="line"/>
      <point x="9" y="385" type="line"/>
      <point x="87" y="385" type="line"/>
      <point x="87" y="79" type="line" smooth="yes"/>
      <point x="87" y="27"/>
      <point x="125" y="-7"/>
    </contour>
    <contour>
      <point x="193.0" y="641.0" type="move" name="right"/>
    </contour>
    <contour>
      <point x="183.0" y="0.0" type="move" name="bottom"/>
    </contour>
  </outline>
</glyph>
<glyph name="u" format="1">
  <advance width="547"/>
  <unicode hex="0075"/>
  <outline>
    <contour>
      <point x="219" y="-8" type="curve" smooth="yes"/>
      <point x="282" y="-8"/>
      <point x="310" y="14"/>
      <point x="376" y="80" type="curve" smooth="yes"/>
      <point x="386" y="90" type="line"/>
      <point x="386" y="136" type="line"/>
      <point x="355" y="108" type="line" smooth="yes"/>
      <point x="323" y="80"/>
      <point x="292" y="61"/>
      <point x="257" y="61" type="curve" smooth="yes"/>
      <point x="208" y="61"/>
      <point x="177" y="74"/>
      <point x="177" y="116" type="curve" smooth="yes"/>
      <point x="177" y="451" type="line"/>
      <point x="25" y="444" type="line"/>
      <point x="25" y="411" type="line"/>
      <point x="107" y="375" type="line"/>
      <point x="97" y="397" type="line"/>
      <point x="97" y="106" type="line" smooth="yes"/>
      <point x="97" y="40"/>
      <point x="149" y="-8"/>
    </contour>
    <contour>
      <point x="370" y="-7" type="line"/>
      <point x="532" y="0" type="line"/>
      <point x="532" y="42" type="line"/>
      <point x="450" y="47" type="line"/>
      <point x="450" y="451" type="line"/>
      <point x="288" y="444" type="line"/>
      <point x="288" y="411" type="line"/>
      <point x="380" y="375" type="line"/>
      <point x="370" y="397" type="line"/>
    </contour>
    <contour>
      <point x="268.0" y="444.0" type="move" name="toplc"/>
    </contour>
    <contour>
      <point x="454.0" y="0.0" type="move" name="ogonek"/>
    </contour>
    <contour>
      <point x="383.0" y="440.0" type="move" name="right"/>
    </contour>
    <contour>
      <point x="268.0" y="0.0" type="move" name="bottom"/>
    </contour>
  </outline>
</glyph>
<glyph name="v" format="1">
  <advance width="493"/>
  <unicode hex="0076"/>
  <outline>
    <contour>
      <point x="221" y="-13" type="line"/>
      <point x="268" y="-13" type="line"/>
      <point x="452" y="424" type="line"/>
      <point x="411" y="390" type="line"/>
      <point x="498" y="407" type="line"/>
      <point x="498" y="444" type="line"/>
      <point x="305" y="444" type="line"/>
      <point x="305" y="407" type="line"/>
      <point x="389" y="390" type="line"/>
      <point x="369" y="425" type="line"/>
      <point x="255" y="57" type="line"/>
      <point x="274" y="58" type="line"/>
      <point x="140" y="424" type="line"/>
      <point x="120" y="392" type="line"/>
      <point x="230" y="407" type="line"/>
      <point x="230" y="444" type="line"/>
      <point x="0" y="444" type="line"/>
      <point x="0" y="407" type="line"/>
      <point x="85" y="390" type="line"/>
      <point x="45" y="424" type="line"/>
    </contour>
  </outline>
</glyph>
<glyph name="w" format="1">
  <advance width="734"/>
  <unicode hex="0077"/>
  <outline>
    <contour>
      <point x="204" y="-13" type="line"/>
      <point x="247" y="-13" type="line"/>
      <point x="375" y="336" type="line"/>
      <point x="355" y="336" type="line"/>
      <point x="484" y="-13" type="line"/>
      <point x="527" y="-13" type="line"/>
      <point x="678" y="424" type="line"/>
      <point x="639" y="390" type="line"/>
      <point x="722" y="407" type="line"/>
      <point x="722" y="444" type="line"/>
      <point x="532" y="444" type="line"/>
      <point x="532" y="407" type="line"/>
      <point x="638" y="392" type="line"/>
      <point x="616" y="425" type="line"/>
      <point x="514" y="59" type="line"/>
      <point x="531" y="59" type="line"/>
      <point x="414" y="424" type="line"/>
      <point x="356" y="424" type="line"/>
      <point x="235" y="60" type="line"/>
      <point x="252" y="59" type="line"/>
      <point x="152" y="425" type="line"/>
      <point x="130" y="392" type="line"/>
      <point x="243" y="407" type="line"/>
      <point x="243" y="444" type="line"/>
      <point x="15" y="444" type="line"/>
      <point x="15" y="407" type="line"/>
      <point x="98" y="390" type="line"/>
      <point x="60" y="424" type="line"/>
    </contour>
    <contour>
      <point x="385" y="444" type="move" name="toplc"/>
    </contour>
  </outline>
</glyph>
<glyph name="sterling" format="1">
  <advance width="541"/>
  <unicode hex="00A3"/>
  <outline>
    <contour>
      <point x="51" y="291" type="line"/>
      <point x="432" y="311" type="line"/>
      <point x="438" y="357" type="line"/>
      <point x="57" y="337" type="line"/>
    </contour>
    <contour>
      <point x="392" y="636" type="line"/>
      <point x="424" y="456" type="line"/>
      <point x="477" y="456" type="line"/>
      <point x="485" y="646" type="line"/>
    </contour>
    <contour>
      <point x="40" y="0" type="line"/>
      <point x="464" y="0" type="line"/>
      <point x="501" y="192" type="line"/>
      <point x="459" y="192" type="line"/>
      <point x="410" y="87" type="line" smooth="yes"/>
      <point x="402" y="69"/>
      <point x="391" y="59"/>
      <point x="370" y="58" type="curve" smooth="yes"/>
      <point x="133" y="49" type="line"/>
      <point x="135" y="39" type="line"/>
      <point x="199" y="73"/>
      <point x="251" y="172"/>
      <point x="251" y="259" type="curve" smooth="yes"/>
      <point x="251" y="334"/>
      <point x="229" y="407"/>
      <point x="229" y="482" type="curve" smooth="yes"/>
      <point x="229" y="547"/>
      <point x="275" y="591"/>
      <point x="343" y="591" type="curve" smooth="yes"/>
      <point x="364" y="591"/>
      <point x="385" y="588"/>
      <point x="404" y="583" type="curve"/>
      <point x="464" y="627" type="line"/>
      <point x="416" y="634"/>
      <point x="368" y="644"/>
      <point x="319" y="644" type="curve" smooth="yes"/>
      <point x="215" y="644"/>
      <point x="137" y="577"/>
      <point x="137" y="477" type="curve" smooth="yes"/>
      <point x="137" y="388"/>
      <point x="157" y="304"/>
      <point x="157" y="215" type="curve" smooth="yes"/>
      <point x="157" y="138"/>
      <point x="114" y="53"/>
      <point x="40" y="41" type="curve"/>
    </contour>
  </outline>
</glyph>
<glyph name="registered" format="1">
  <advance width="331"/>
  <unicode hex="00AE"/>
  <outline>
    <contour>
      <point x="165" y="392" type="curve" smooth="yes"/>
      <point x="236" y="392"/>
      <point x="291" y="446"/>
      <point x="291" y="517" type="curve" smooth="yes"/>
      <point x="291" y="587"/>
      <point x="236" y="642"/>
      <point x="165" y="642" type="curve" smooth="yes"/>
      <point x="95" y="642"/>
      <point x="40" y="587"/>
      <point x="40" y="517" type="curve" smooth="yes"/>
      <point x="40" y="446"/>
      <point x="95" y="392"/>
    </contour>
    <contour>
      <point x="165" y="412" type="curve" smooth="yes"/>
      <point x="106" y="412"/>
      <point x="62" y="456"/>
      <point x="62" y="517" type="curve" smooth="yes"/>
      <point x="62" y="577"/>
      <point x="106" y="623"/>
      <point x="165" y="623" type="curve" smooth="yes"/>
      <point x="225" y="623"/>
      <point x="270" y="577"/>
      <point x="270" y="517" type="curve" smooth="yes"/>
      <point x="270" y="456"/>
      <point x="225" y="412"/>
    </contour>
    <component base="R" xScale="0.239673842236" yScale="0.216726765194" xOffset="89" yOffset="449"/>
  </outline>
</glyph>
<glyph name="degree" format="1">
  <advance width="380"/>
  <unicode hex="00B0"/>
  <outline>
    <contour>
      <point x="190" y="373" type="curve" smooth="yes"/>
      <point x="278" y="373"/>
      <point x="340" y="436"/>
      <point x="340" y="524" type="curve" smooth="yes"/>
      <point x="340" y="611"/>
      <point x="277" y="674"/>
      <point x="190" y="674" type="curve" smooth="yes"/>
      <point x="103" y="674"/>
      <point x="40" y="611"/>
      <point x="40" y="524" type="curve" smooth="yes"/>
      <point x="40" y="436"/>
      <point x="102" y="373"/>
    </contour>
    <contour>
      <point x="190" y="422" type="curve" smooth="yes"/>
      <point x="133" y="422"/>
      <point x="96" y="467"/>
      <point x="96" y="524" type="curve" smooth="yes"/>
      <point x="96" y="580"/>
      <point x="133" y="625"/>
      <point x="190" y="625" type="curve" smooth="yes"/>
      <point x="247" y="625"/>
      <point x="285" y="580"/>
      <point x="285" y="524" type="curve" smooth="yes"/>
      <point x="285" y="466"/>
      <point x="248" y="422"/>
    </contour>
  </outline>
</glyph>
<glyph name="plusminus" format="1">
  <advance width="552"/>
  <unicode hex="00B1"/>
  <outline>
    <contour>
      <point x="65" y="1" type="line"/>
      <point x="488" y="1" type="line"/>
      <point x="488" y="54" type="line"/>
      <point x="65" y="54" type="line"/>
    </contour>
    <contour>
      <point x="50" y="302" type="line"/>
      <point x="249" y="302" type="line"/>
      <point x="249" y="94" type="line"/>
      <point x="302" y="94" type="line"/>
      <point x="302" y="302" type="line"/>
      <point x="502" y="302" type="line"/>
      <point x="502" y="355" type="line"/>
      <point x="302" y="355" type="line"/>
      <point x="302" y="564" type="line"/>
      <point x="249" y="564" type="line"/>
      <point x="249" y="355" type="line"/>
      <point x="50" y="355" type="line"/>
    </contour>
  </outline>
</glyph>
<glyph name="acute" format="1">
  <advance width="258"/>
  <unicode hex="00B4"/>
  <outline>
    <contour>
      <point x="128" y="660" type="line"/>
      <point x="51" y="508" type="line"/>
      <point x="77" y="494" type="line"/>
      <point x="218" y="657" type="line"/>
      <point x="218" y="664" type="line"/>
    </contour>
    <contour>
      <point x="71.0" y="444.0" type="move" name="_toplc"/>
    </contour>
  </outline>
</glyph>
<glyph name="paragraph" format="1">
  <advance width="605"/>
  <unicode hex="00B6"/>
  <outline>
    <contour>
      <point x="402" y="-111" type="line"/>
      <point x="477" y="-111" type="line"/>
      <point x="477" y="531" type="line"/>
      <point x="555" y="541" type="line"/>
      <point x="555" y="592" type="line"/>
      <point x="313" y="592" type="line" smooth="yes"/>
      <point x="169" y="592"/>
      <point x="50" y="514"/>
      <point x="50" y="359" type="curve" smooth="yes"/>
      <point x="50" y="216"/>
      <point x="155" y="124"/>
      <point x="298" y="124" type="curve" smooth="yes"/>
      <point x="338" y="124" type="line"/>
      <point x="338" y="541" type="line"/>
      <point x="402" y="541" type="line"/>
    </contour>
  </outline>
</glyph>
<glyph name="cedilla" format="1">
  <advance width="236"/>
  <unicode hex="00B8"/>
  <outline>
    <contour>
      <point x="75" y="-229" type="curve" smooth="yes"/>
      <point x="131" y="-229"/>
      <point x="196" y="-180"/>
      <point x="196" y="-124" type="curve" smooth="yes"/>
      <point x="196" y="-66"/>
      <point x="156" y="-42"/>
      <point x="100" y="-36" type="curve"/>
      <point x="105" y="-57" type="line"/>
      <point x="169" y="15" type="line"/>
      <point x="132" y="15" type="line"/>
      <point x="55" y="-84" type="line"/>
      <point x="64" y="-98" type="line"/>
      <point x="97" y="-94"/>
      <point x="146" y="-110"/>
      <point x="144" y="-143" type="curve" smooth="yes"/>
      <point x="142" y="-187"/>
      <point x="99" y="-187"/>
      <point x="45" y="-170" type="curve"/>
      <point x="31" y="-206"/>
      <point x="45" y="-229"/>
    </contour>
    <contour>
      <point x="139" y="0" type="move" name="_bottom"/>
    </contour>
  </outline>
</glyph>
<glyph name="AE" format="1">
  <advance width="852"/>
  <unicode hex="00C6"/>
  <outline>
    <contour>
      <point x="339" y="583" type="line"/>
      <point x="412" y="583" type="line"/>
      <point x="412" y="355" type="line"/>
      <point x="250" y="355" type="line"/>
    </contour>
    <contour>
      <point x="498" y="89" type="curve" smooth="yes"/>
      <point x="498" y="299" type="line"/>
      <point x="702" y="296" type="line"/>
      <point x="712" y="359" type="line"/>
      <point x="498" y="356" type="line"/>
      <point x="498" y="583" type="line"/>
      <point x="723" y="583" type="line"/>
      <point x="748" y="481" type="line"/>
      <point x="787" y="481" type="line"/>
      <point x="787" y="652" type="line"/>
      <point x="721" y="642" type="line"/>
      <point x="301" y="642" type="line"/>
      <point x="41" y="47" type="line"/>
      <point x="-20" y="37" type="line"/>
      <point x="-20" y="0" type="line"/>
      <point x="228" y="0" type="line"/>
      <point x="228" y="37" type="line"/>
      <point x="129" y="47" type="line"/>
      <point x="228" y="299" type="line"/>
      <point x="412" y="299" type="line"/>
      <point x="412" y="47" type="line"/>
      <point x="324" y="37" type="line"/>
      <point x="324" y="0" type="line"/>
      <point x="779" y="0" type="line"/>
      <point x="816" y="192" type="line"/>
      <point x="774" y="192" type="line"/>
      <point x="725" y="87" type="line" smooth="yes"/>
      <point x="717" y="69"/>
      <point x="706" y="59"/>
      <point x="685" y="58" type="curve" smooth="yes"/>
      <point x="535" y="51" type="line" smooth="yes"/>
      <point x="506" y="50"/>
      <point x="498" y="62"/>
    </contour>
    <contour>
      <point x="457.0" y="642.0" type="move" name="topuc"/>
    </contour>
  </outline>
</glyph>
<glyph name="multiply" format="1">
  <advance width="498"/>
  <unicode hex="00D7"/>
  <outline>
    <contour>
      <point x="88" y="87" type="line"/>
      <point x="438" y="447" type="line"/>
      <point x="400" y="485" type="line"/>
      <point x="50" y="125" type="line"/>
    </contour>
    <contour>
      <point x="448" y="125" type="line"/>
      <point x="88" y="485" type="line"/>
      <point x="50" y="447" type="line"/>
      <point x="410" y="87" type="line"/>
    </contour>
  </outline>
</glyph>
<glyph name="ae" format="1">
  <advance width="690"/>
  <unicode hex="00E6"/>
  <outline>
    <contour>
      <point x="363.0" y="184.0" type="line"/>
      <point x="363.0" y="312.0" type="line" smooth="yes"/>
      <point x="363.0" y="416.0"/>
      <point x="301.0" y="455.0"/>
      <point x="226.0" y="455.0" type="curve" smooth="yes"/>
      <point x="166.0" y="455.0"/>
      <point x="100.0" y="439.0"/>
      <point x="55.0" y="414.0" type="curve"/>
      <point x="55.0" y="356.0" type="line"/>
      <point x="122.0" y="374.0"/>
      <point x="171.0" y="383.0"/>
      <point x="205.0" y="383.0" type="curve" smooth="yes"/>
      <point x="269.0" y="383.0"/>
      <point x="285" y="353"/>
      <point x="285" y="301" type="curve" smooth="yes"/>
      <point x="285" y="235" type="line"/>
    </contour>
    <contour>
      <point x="154" y="-7" type="curve" smooth="yes"/>
      <point x="227" y="-7"/>
      <point x="294" y="47"/>
      <point x="320" y="104" type="curve"/>
      <point x="300" y="129" type="line"/>
      <point x="277" y="90"/>
      <point x="218" y="61"/>
      <point x="182" y="61" type="curve" smooth="yes"/>
      <point x="145" y="61"/>
      <point x="122" y="81"/>
      <point x="122" y="113" type="curve" smooth="yes"/>
      <point x="122" y="146"/>
      <point x="144" y="175"/>
      <point x="192" y="183" type="curve" smooth="yes"/>
      <point x="314" y="204" type="line"/>
      <point x="314" y="253" type="line"/>
      <point x="169" y="229" type="line" smooth="yes"/>
      <point x="82" y="215"/>
      <point x="42" y="161"/>
      <point x="42" y="102" type="curve" smooth="yes"/>
      <point x="42" y="38"/>
      <point x="89" y="-7"/>
    </contour>
    <contour>
      <point x="476" y="-10" type="curve" smooth="yes"/>
      <point x="555" y="-10"/>
      <point x="616" y="39"/>
      <point x="652" y="111" type="curve"/>
      <point x="627" y="133" type="line"/>
      <point x="596" y="91"/>
      <point x="552" y="64"/>
      <point x="501" y="64" type="curve" smooth="yes"/>
      <point x="412" y="64"/>
      <point x="363" y="130"/>
      <point x="363" y="245" type="curve" smooth="yes"/>
      <point x="363" y="333"/>
      <point x="411" y="399"/>
      <point x="481" y="399" type="curve" smooth="yes"/>
      <point x="532" y="399"/>
      <point x="577" y="361"/>
      <point x="570" y="270" type="curve"/>
      <point x="352" y="263" type="line"/>
      <point x="352" y="218" type="line"/>
      <point x="646" y="220" type="line"/>
      <point x="661" y="384"/>
      <point x="592" y="455"/>
      <point x="486" y="455" type="curve" smooth="yes"/>
      <point x="362" y="455"/>
      <point x="285" y="336"/>
      <point x="285" y="206" type="curve" smooth="yes"/>
      <point x="285" y="84"/>
      <point x="360" y="-10"/>
    </contour>
    <contour>
      <point x="345.0" y="444.0" type="move" name="toplc"/>
    </contour>
  </outline>
</glyph>
<glyph name="oslash" format="1">
  <advance width="506"/>
  <unicode hex="00F8"/>
  <outline>
    <contour>
      <point x="117" y="-97" type="line"/>
      <point x="425" y="526" type="line"/>
      <point x="393" y="543" type="line"/>
      <point x="87" y="-83" type="line"/>
    </contour>
    <component base="o"/>
    <contour>
      <point x="250" y="444" type="move" name="toplc"/>
    </contour>
  </outline>
</glyph>
<glyph name="dcroat" format="1">
  <advance width="511"/>
  <unicode hex="0111"/>
  <outline>
    <contour>
      <point x="212" y="506" type="line"/>
      <point x="497" y="506" type="line"/>
      <point x="497" y="546" type="line"/>
      <point x="212" y="546" type="line"/>
    </contour>
    <component base="d"/>
  </outline>
</glyph>
<glyph name="hbar" format="1">
  <advance width="612"/>
  <unicode hex="0127"/>
  <outline>
    <contour>
      <point x="15" y="493" type="line"/>
      <point x="300" y="493" type="line"/>
      <point x="300" y="533" type="line"/>
      <point x="15" y="533" type="line"/>
    </contour>
    <component base="h"/>
  </outline>
</glyph>
<glyph name="dotlessi" format="1">
  <advance width="274"/>
  <unicode hex="0131"/>
  <outline>
    <contour>
      <point x="25" y="0" type="line"/>
      <point x="249" y="0" type="line"/>
      <point x="249" y="41" type="line"/>
      <point x="147" y="55" type="line"/>
      <point x="177" y="21" type="line"/>
      <point x="177" y="380" type="line"/>
      <point x="187" y="455" type="line"/>
      <point x="25" y="444" type="line"/>
      <point x="25" y="411" type="line"/>
      <point x="124" y="364" type="line"/>
      <point x="97" y="407" type="line"/>
      <point x="97" y="21" type="line"/>
      <point x="127" y="55" type="line"/>
      <point x="25" y="41" type="line"/>
    </contour>
    <contour>
      <point x="132" y="444" type="move" name="toplc"/>
    </contour>
  </outline>
</glyph>
<glyph name="kra" format="1">
  <advance width="505"/>
  <unicode hex="0138"/>
  <outline>
    <contour>
      <point x="420" y="-7" type="line"/>
      <point x="520" y="-7" type="line"/>
      <point x="273" y="298" type="line"/>
      <point x="272" y="255" type="line"/>
      <point x="458" y="411" type="line"/>
      <point x="405" y="389" type="line"/>
      <point x="496" y="403" type="line"/>
      <point x="496" y="444" type="line"/>
      <point x="279" y="444" type="line"/>
      <point x="279" y="403" type="line"/>
      <point x="375" y="389" type="line"/>
      <point x="366" y="414" type="line"/>
      <point x="241" y="268" type="line"/>
      <point x="159" y="253" type="line"/>
      <point x="159" y="228" type="line"/>
      <point x="228" y="228" type="line"/>
    </contour>
    <contour>
      <point x="25" y="0" type="line"/>
      <point x="249" y="0" type="line"/>
      <point x="249" y="41" type="line"/>
      <point x="147" y="55" type="line"/>
      <point x="177" y="21" type="line"/>
      <point x="177" y="423" type="line"/>
      <point x="147" y="389" type="line"/>
      <point x="249" y="403" type="line"/>
      <point x="249" y="444" type="line"/>
      <point x="25" y="444" type="line"/>
      <point x="25" y="403" type="line"/>
      <point x="127" y="389" type="line"/>
      <point x="97" y="423" type="line"/>
      <point x="97" y="21" type="line"/>
      <point x="127" y="55" type="line"/>
      <point x="25" y="41" type="line"/>
    </contour>
  </outline>
</glyph>
<glyph name="Lslash" format="1">
  <advance width="559"/>
  <unicode hex="0141"/>
  <outline>
    <contour>
      <point x="338" y="439" type="line"/>
      <point x="24" y="309" type="line"/>
      <point x="24" y="254" type="line"/>
      <point x="338" y="384" type="line"/>
    </contour>
    <component base="L"/>
  </outline>
</glyph>
<glyph name="lslash" format="1">
  <advance width="284"/>
  <unicode hex="0142"/>
  <outline>
    <contour>
      <point x="15" y="244" type="line"/>
      <point x="267" y="384" type="line"/>
      <point x="267" y="429" type="line"/>
      <point x="15" y="289" type="line"/>
    </contour>
    <component base="l"/>
  </outline>
</glyph>
<glyph name="OE" format="1">
  <advance width="944"/>
  <unicode hex="0152"/>
  <outline>
    <contour>
      <point x="505" y="485" type="curve" smooth="yes"/>
      <point x="505" y="167" type="line" smooth="yes"/>
      <point x="505" y="81"/>
      <point x="468" y="41"/>
      <point x="359" y="41" type="curve" smooth="yes"/>
      <point x="208" y="41"/>
      <point x="138" y="173"/>
      <point x="138" y="313" type="curve" smooth="yes"/>
      <point x="138" y="460"/>
      <point x="185" y="598"/>
      <point x="375" y="598" type="curve" smooth="yes"/>
      <point x="428" y="598"/>
      <point x="505" y="593"/>
    </contour>
    <contour>
      <point x="590" y="89" type="curve" smooth="yes"/>
      <point x="590" y="309" type="line"/>
      <point x="794" y="306" type="line"/>
      <point x="804" y="369" type="line"/>
      <point x="590" y="366" type="line"/>
      <point x="590" y="583" type="line"/>
      <point x="815" y="583" type="line"/>
      <point x="840" y="481" type="line"/>
      <point x="879" y="481" type="line"/>
      <point x="879" y="652" type="line"/>
      <point x="813" y="642" type="line"/>
      <point x="567" y="642" type="line" smooth="yes"/>
      <point x="463" y="642"/>
      <point x="423" y="654"/>
      <point x="370" y="654" type="curve" smooth="yes"/>
      <point x="174" y="654"/>
      <point x="46" y="509"/>
      <point x="46" y="313" type="curve" smooth="yes"/>
      <point x="46" y="129"/>
      <point x="155" y="-15"/>
      <point x="339" y="-15" type="curve" smooth="yes"/>
      <point x="404" y="-15"/>
      <point x="450" y="0"/>
      <point x="553" y="0" type="curve" smooth="yes"/>
      <point x="871" y="0" type="line"/>
      <point x="908" y="192" type="line"/>
      <point x="866" y="192" type="line"/>
      <point x="817" y="87" type="line" smooth="yes"/>
      <point x="809" y="69"/>
      <point x="798" y="59"/>
      <point x="777" y="58" type="curve" smooth="yes"/>
      <point x="627" y="51" type="line" smooth="yes"/>
      <point x="598" y="50"/>
      <point x="590" y="62"/>
    </contour>
  </outline>
</glyph>
<glyph name="tbar" format="1">
  <advance width="366"/>
  <unicode hex="0167"/>
  <outline>
    <contour>
      <point x="5" y="263" type="line"/>
      <point x="290" y="263" type="line"/>
      <point x="290" y="303" type="line"/>
      <point x="5" y="303" type="line"/>
    </contour>
    <component base="t"/>
  </outline>
</glyph>
<glyph name="ohorn" format="1">
  <advance width="506"/>
  <unicode hex="01A1"/>
  <outline>
    <component base="o"/>
    <component base="cmb:horn" xOffset="133" yOffset="18"/>
    <contour>
      <point x="253" y="444" type="move" name="toplc"/>
    </contour>
    <contour>
      <point x="253" y="0" type="move" name="bottom"/>
    </contour>
  </outline>
</glyph>
<glyph name="dotlessj" format="1">
  <advance width="264"/>
  <unicode hex="0237"/>
  <outline>
    <contour>
      <point x="1" y="-220" type="line"/>
      <point x="79" y="-195" type="line" smooth="yes"/>
      <point x="153" y="-171"/>
      <point x="177" y="-134"/>
      <point x="177" y="-47" type="curve" smooth="yes"/>
      <point x="177" y="380" type="line"/>
      <point x="187" y="455" type="line"/>
      <point x="25" y="444" type="line"/>
      <point x="25" y="411" type="line"/>
      <point x="107" y="372" type="line"/>
      <point x="97" y="394" type="line"/>
      <point x="97" y="-9" type="line" smooth="yes"/>
      <point x="97" y="-113"/>
      <point x="92" y="-133"/>
      <point x="43" y="-159" type="curve" smooth="yes"/>
      <point x="-10" y="-187" type="line"/>
    </contour>
    <contour>
      <point x="132" y="444" type="move" name="toplc"/>
    </contour>
  </outline>
</glyph>
<glyph name="breve" format="1">
  <advance width="366"/>
  <unicode hex="02D8"/>
  <outline>
    <contour>
      <point x="183" y="572" type="curve" smooth="yes"/>
      <point x="139" y="572"/>
      <point x="112" y="606"/>
      <point x="109" y="650" type="curve"/>
      <point x="78" y="650" type="line"/>
      <point x="78" y="641" type="line" smooth="yes"/>
      <point x="78" y="567"/>
      <point x="109" y="510"/>
      <point x="183" y="510" type="curve" smooth="yes"/>
      <point x="257" y="510"/>
      <point x="288" y="567"/>
      <point x="288" y="641" type="curve" smooth="yes"/>
      <point x="288" y="650" type="line"/>
      <point x="258" y="650" type="line"/>
      <point x="255" y="606"/>
      <point x="227" y="572"/>
    </contour>
    <contour>
      <point x="183.0" y="444.0" type="move" name="_toplc"/>
    </contour>
  </outline>
</glyph>
<glyph name="dotaccent" format="1">
  <advance width="214"/>
  <unicode hex="02D9"/>
  <outline>
    <contour>
      <point x="107" y="531" type="curve" smooth="yes"/>
      <point x="133" y="531"/>
      <point x="158" y="555"/>
      <point x="158" y="582" type="curve" smooth="yes"/>
      <point x="158" y="608"/>
      <point x="133" y="633"/>
      <point x="107" y="633" type="curve" smooth="yes"/>
      <point x="80" y="633"/>
      <point x="56" y="608"/>
      <point x="56" y="582" type="curve" smooth="yes"/>
      <point x="56" y="555"/>
      <point x="80" y="531"/>
    </contour>
    <contour>
      <point x="107.0" y="444.0" type="move" name="_toplc"/>
    </contour>
  </outline>
</glyph>
<glyph name="ogonek" format="1">
  <advance width="372"/>
  <unicode hex="02DB"/>
  <outline>
    <contour>
      <point x="311" y="-156" type="line"/>
      <point x="297" y="-166"/>
      <point x="281" y="-170"/>
      <point x="264" y="-170" type="curve" smooth="yes"/>
      <point x="233" y="-170"/>
      <point x="212" y="-147"/>
      <point x="212" y="-116" type="curve" smooth="yes"/>
      <point x="212" y="-62"/>
      <point x="248" y="-23"/>
      <point x="289" y="12" type="curve"/>
      <point x="243" y="17" type="line"/>
      <point x="187" y="-23"/>
      <point x="144" y="-77"/>
      <point x="144" y="-146" type="curve" smooth="yes"/>
      <point x="144" y="-194"/>
      <point x="183" y="-223"/>
      <point x="231" y="-223" type="curve" smooth="yes"/>
      <point x="266" y="-223"/>
      <point x="295" y="-204"/>
      <point x="317" y="-177" type="curve"/>
    </contour>
    <contour>
      <point x="253.0" y="0.0" type="move" name="_ogonek"/>
    </contour>
  </outline>
</glyph>
<glyph name="hungarumlaut" format="1">
  <advance width="355"/>
  <unicode hex="02DD"/>
  <outline>
    <contour>
      <point x="90" y="658" type="line"/>
      <point x="50" y="508" type="line"/>
      <point x="76" y="494" type="line"/>
      <point x="167" y="657" type="line"/>
      <point x="167" y="664" type="line"/>
    </contour>
    <contour>
      <point x="228" y="658" type="line"/>
      <point x="188" y="508" type="line"/>
      <point x="214" y="494" type="line"/>
      <point x="305" y="657" type="line"/>
      <point x="305" y="664" type="line"/>
    </contour>
    <contour>
      <point x="142" y="444" type="move" name="_toplc"/>
    </contour>
  </outline>
</glyph>
<glyph name="cmb:commaturnedabove" format="1">
  <advance width="197"/>
  <unicode hex="0312"/>
  <outline>
    <contour>
      <point x="94" y="504" type="curve" smooth="yes"/>
      <point x="126" y="504"/>
      <point x="149" y="524"/>
      <point x="149" y="552" type="curve" smooth="yes"/>
      <point x="149" y="561"/>
      <point x="146" y="570"/>
      <point x="141" y="579" type="curve"/>
      <point x="118" y="583" type="line" smooth="yes"/>
      <point x="99" y="587"/>
      <point x="91" y="593"/>
      <point x="91" y="606" type="curve" smooth="yes"/>
      <point x="91" y="622"/>
      <point x="114" y="640"/>
      <point x="157" y="646" type="curve"/>
      <point x="140" y="680" type="line"/>
      <point x="72" y="670"/>
      <point x="37.0" y="623.5357142857143"/>
      <point x="37" y="578" type="curve" smooth="yes"/>
      <point x="37" y="531"/>
      <point x="58" y="504"/>
    </contour>
    <contour>
      <point x="96.0" y="444.0" type="move" name="_toplc"/>
    </contour>
  </outline>
</glyph>
<glyph name="cmb:RIGHTturnedabove" format="1">
  <advance width="279"/>
  <unicode hex="0315"/>
  <outline>
    <contour>
      <point x="108" y="642" type="curve"/>
      <point x="179" y="642" type="line"/>
      <point x="172" y="576"/>
      <point x="161" y="513"/>
      <point x="121" y="460" type="curve"/>
      <point x="100" y="462" type="line"/>
      <point x="111" y="522"/>
      <point x="117" y="582"/>
    </contour>
    <contour>
      <point x="89" y="642" type="move" name="_right"/>
    </contour>
  </outline>
</glyph>
<glyph name="endash" format="1">
  <advance width="568"/>
  <unicode hex="2013"/>
  <outline>
    <contour>
      <point x="498" y="205" type="line"/>
      <point x="498" y="265" type="line"/>
      <point x="70" y="265" type="line"/>
      <point x="70" y="205" type="line"/>
    </contour>
  </outline>
</glyph>
<glyph name="emdash" format="1">
  <advance width="600"/>
  <unicode hex="2014"/>
  <outline>
    <contour>
      <point x="600" y="205" type="line"/>
      <point x="600" y="264" type="line"/>
      <point x="0" y="264" type="line"/>
      <point x="0" y="205" type="line"/>
    </contour>
  </outline>
</glyph>
<glyph name="quoteleft" format="1">
  <advance width="202"/>
  <unicode hex="2018"/>
  <outline>
    <contour>
      <point x="148" y="501" type="curve"/>
      <point x="129" y="511" type="line" smooth="yes"/>
      <point x="112" y="520"/>
      <point x="102" y="537"/>
      <point x="102" y="556" type="curve" smooth="yes"/>
      <point x="102" y="611"/>
      <point x="146" y="652"/>
      <point x="182" y="678" type="curve"/>
      <point x="157" y="708" type="line"/>
      <point x="85" y="657"/>
      <point x="20" y="603"/>
      <point x="20" y="515" type="curve" smooth="yes"/>
      <point x="20" y="488"/>
      <point x="37" y="442"/>
      <point x="86" y="442" type="curve" smooth="yes"/>
      <point x="118" y="442"/>
      <point x="139" y="462"/>
    </contour>
  </outline>
</glyph>
<glyph name="daggerdbl" format="1">
  <advance width="511"/>
  <unicode hex="2021"/>
  <outline>
    <contour>
      <point x="230" y="532" type="line"/>
      <point x="266" y="532" type="line"/>
      <point x="294" y="672" type="line"/>
      <point x="203" y="672" type="line"/>
    </contour>
    <contour>
      <point x="50" y="455" type="line"/>
      <point x="212" y="479" type="line"/>
      <point x="212" y="509" type="line"/>
      <point x="50" y="533" type="line"/>
    </contour>
    <contour>
      <point x="446" y="455" type="line"/>
      <point x="446" y="533" type="line"/>
      <point x="285" y="509" type="line"/>
      <point x="285" y="479" type="line"/>
    </contour>
    <contour>
      <point x="266" y="43" type="line"/>
      <point x="230" y="43" type="line"/>
      <point x="202" y="-97" type="line"/>
      <point x="293" y="-97" type="line"/>
    </contour>
    <contour>
      <point x="446" y="120" type="line"/>
      <point x="284" y="96" type="line"/>
      <point x="284" y="66" type="line"/>
      <point x="446" y="42" type="line"/>
    </contour>
    <contour>
      <point x="50" y="120" type="line"/>
      <point x="50" y="42" type="line"/>
      <point x="211" y="66" type="line"/>
      <point x="211" y="96" type="line"/>
    </contour>
    <contour>
      <point x="291" y="288" type="line"/>
      <point x="266" y="456" type="line"/>
      <point x="230" y="456" type="line"/>
      <point x="205" y="288" type="line"/>
      <point x="230" y="119" type="line"/>
      <point x="266" y="119" type="line"/>
    </contour>
  </outline>
</glyph>
<glyph name="fraction" format="1">
  <advance width="187"/>
  <unicode hex="2044"/>
  <outline>
    <contour>
      <point x="-121" y="-15" type="line"/>
      <point x="-84" y="-15" type="line"/>
      <point x="314" y="912" type="line"/>
      <point x="308" y="920" type="line"/>
      <point x="271" y="920" type="line"/>
      <point x="-127" y="-7" type="line"/>
    </contour>
  </outline>
</glyph>
<glyph name="notequal" format="1">
  <advance width="650"/>
  <unicode hex="2260"/>
  <outline>
    <contour>
      <point x="189" y="21" type="line"/>
      <point x="226" y="21" type="line"/>
      <point x="445" y="506" type="line"/>
      <point x="439" y="514" type="line"/>
      <point x="402" y="514" type="line"/>
      <point x="183" y="29" type="line"/>
    </contour>
    <contour>
      <point x="93" y="366" type="line"/>
      <point x="545" y="366" type="line"/>
      <point x="545" y="420" type="line"/>
      <point x="93" y="420" type="line"/>
    </contour>
    <contour>
      <point x="93" y="161" type="line"/>
      <point x="545" y="161" type="line"/>
      <point x="545" y="215" type="line"/>
      <point x="93" y="215" type="line"/>
    </contour>
  </outline>
</glyph>
<glyph name="lessequal" format="1">
  <advance width="492"/>
  <unicode hex="2264"/>
  <outline>
    <contour>
      <point x="89" y="435" type="line"/>
      <point x="89" y="451" type="line"/>
      <point x="447" y="612" type="line"/>
      <point x="447" y="662" type="line"/>
      <point x="45" y="479" type="line"/>
      <point x="45" y="408" type="line"/>
      <point x="447" y="225" type="line"/>
      <point x="447" y="274" type="line"/>
    </contour>
    <contour>
      <point x="20" y="85" type="line"/>
      <point x="472" y="85" type="line"/>
      <point x="472" y="130" type="line"/>
      <point x="20" y="130" type="line"/>
    </contour>
  </outline>
</glyph>
<glyph name="lozenge" format="1">
  <advance width="521"/>
  <unicode hex="25CA"/>
  <outline>
    <contour>
      <point x="40" y="337" type="line"/>
      <point x="237" y="-53" type="line"/>
      <point x="285" y="-53" type="line"/>
      <point x="481" y="337" type="line"/>
      <point x="285" y="728" type="line"/>
      <point x="237" y="728" type="line"/>
    </contour>
    <contour>
      <point x="97" y="338" type="line"/>
      <point x="260" y="668" type="line"/>
      <point x="262" y="668" type="line"/>
      <point x="424" y="337" type="line"/>
      <point x="262" y="6" type="line"/>
      <point x="260" y="6" type="line"/>
    </contour>
  </outline>
</glyph>
<glyph name="hyphendbl" format="1">
  <advance width="335"/>
  <unicode hex="2E17"/>
  <outline>
    <contour>
      <point x="285" y="175" type="line"/>
      <point x="285" y="225" type="line"/>
      <point x="50" y="185" type="line"/>
      <point x="50" y="135" type="line"/>
    </contour>
    <contour>
      <point x="285" y="275" type="line"/>
      <point x="285" y="325" type="line"/>
      <point x="50" y="285" type="line"/>
      <point x="50" y="235" type="line"/>
    </contour>
  </outline>
</glyph>
<glyph name="three.LT" format="1">
  <advance width="481"/>
  <unicode hex="E003"/>
  <outline>
    <contour>
      <point x="214" y="-15" type="curve" smooth="yes"/>
      <point x="332" y="-15"/>
      <point x="431" y="50"/>
      <point x="431" y="172" type="curve" smooth="yes"/>
      <point x="431" y="277"/>
      <point x="347" y="337"/>
      <point x="245" y="342" type="curve"/>
      <point x="332" y="356"/>
      <point x="405" y="414"/>
      <point x="405" y="505" type="curve" smooth="yes"/>
      <point x="405" y="594"/>
      <point x="335" y="648"/>
      <point x="248" y="648" type="curve" smooth="yes"/>
      <point x="179" y="648"/>
      <point x="112" y="626"/>
      <point x="61" y="578" type="curve"/>
      <point x="85" y="538" type="line"/>
      <point x="127" y="563"/>
      <point x="171" y="584"/>
      <point x="220" y="584" type="curve" smooth="yes"/>
      <point x="274" y="584"/>
      <point x="320" y="555"/>
      <point x="320" y="500" type="curve" smooth="yes"/>
      <point x="320" y="399"/>
      <point x="226" y="370"/>
      <point x="133" y="341" type="curve"/>
      <point x="133" y="295" type="line"/>
      <point x="239" y="294"/>
      <point x="346" y="272"/>
      <point x="346" y="162" type="curve" smooth="yes"/>
      <point x="346" y="82"/>
      <point x="285" y="29"/>
      <point x="207" y="29" type="curve" smooth="yes"/>
      <point x="188" y="29"/>
      <point x="168" y="30"/>
      <point x="100" y="38" type="curve"/>
      <point x="151" y="8" type="line"/>
      <point x="117" y="147" type="line"/>
      <point x="82" y="161"/>
      <point x="50" y="138"/>
      <point x="50" y="98" type="curve" smooth="yes"/>
      <point x="50" y="27"/>
      <point x="111" y="-15"/>
    </contour>
  </outline>
</glyph>
<glyph name="seven.LT" format="1">
  <advance width="520"/>
  <unicode hex="E007"/>
  <outline>
    <contour>
      <point x="211" y="0" type="line"/>
      <point x="470" y="617" type="line"/>
      <point x="470" y="642" type="line"/>
      <point x="58" y="642" type="line"/>
      <point x="50" y="467" type="line"/>
      <point x="90" y="467" type="line"/>
      <point x="104" y="545" type="line" smooth="yes"/>
      <point x="107" y="564"/>
      <point x="120" y="575"/>
      <point x="139" y="575" type="curve" smooth="yes"/>
      <point x="408" y="575" type="line"/>
      <point x="391" y="602" type="line"/>
      <point x="120" y="8" type="line"/>
      <point x="120" y="0" type="line"/>
    </contour>
  </outline>
</glyph>
<glyph name="eight.LT" format="1">
  <advance width="520"/>
  <unicode hex="E008"/>
  <outline>
    <contour>
      <point x="470" y="158" type="curve" smooth="yes"/>
      <point x="470" y="248"/>
      <point x="402" y="304"/>
      <point x="323" y="341" type="curve"/>
      <point x="385" y="376"/>
      <point x="437" y="419"/>
      <point x="437" y="491" type="curve" smooth="yes"/>
      <point x="437" y="591"/>
      <point x="358" y="648"/>
      <point x="261" y="648" type="curve" smooth="yes"/>
      <point x="160" y="648"/>
      <point x="85" y="581"/>
      <point x="85" y="477" type="curve" smooth="yes"/>
      <point x="85" y="408"/>
      <point x="130" y="362"/>
      <point x="188" y="329" type="curve"/>
      <point x="116" y="285"/>
      <point x="50" y="235"/>
      <point x="50" y="148" type="curve" smooth="yes"/>
      <point x="50" y="37"/>
      <point x="148" y="-16"/>
      <point x="256" y="-16" type="curve" smooth="yes"/>
      <point x="368" y="-16"/>
      <point x="470" y="43"/>
    </contour>
    <contour>
      <point x="380" y="146" type="curve" smooth="yes"/>
      <point x="380" y="78"/>
      <point x="325" y="40"/>
      <point x="259" y="40" type="curve" smooth="yes"/>
      <point x="190" y="40"/>
      <point x="141" y="88"/>
      <point x="141" y="159" type="curve" smooth="yes"/>
      <point x="141" y="218"/>
      <point x="174" y="264"/>
      <point x="217" y="304" type="curve"/>
      <point x="295" y="270"/>
      <point x="380" y="234"/>
    </contour>
    <contour>
      <point x="165" y="502" type="curve" smooth="yes"/>
      <point x="165" y="560"/>
      <point x="204" y="598"/>
      <point x="261" y="598" type="curve" smooth="yes"/>
      <point x="316" y="598"/>
      <point x="350" y="555"/>
      <point x="350" y="498" type="curve" smooth="yes"/>
      <point x="350" y="444"/>
      <point x="327" y="397"/>
      <point x="285" y="364" type="curve"/>
      <point x="228" y="398"/>
      <point x="165" y="434"/>
    </contour>
  </outline>
</glyph>
<glyph name="acute.case" format="1">
  <advance width="181"/>
  <outline>
    <contour>
      <point x="84" y="851" type="line"/>
      <point x="-7" y="705" type="line"/>
      <point x="30" y="694" type="line"/>
      <point x="171" y="824" type="line"/>
      <point x="171" y="827" type="line"/>
    </contour>
    <contour>
      <point x="31" y="642" type="move" name="_topuc"/>
    </contour>
  </outline>
</glyph>
<glyph name="alt10" format="1">
  <advance width="750"/>
  <outline>
    <contour>
      <point x="687" y="259" type="line"/>
      <point x="687" y="300" type="line"/>
      <point x="651" y="300" type="line"/>
      <point x="710" y="373" type="line"/>
      <point x="667" y="373" type="line"/>
      <point x="608" y="300" type="line"/>
      <point x="585" y="300" type="line"/>
      <point x="644" y="373" type="line"/>
      <point x="601" y="373" type="line"/>
      <point x="543" y="300" type="line"/>
      <point x="520" y="300" type="line"/>
      <point x="579" y="373" type="line"/>
      <point x="537" y="373" type="line"/>
      <point x="478" y="300" type="line"/>
      <point x="455" y="300" type="line"/>
      <point x="513" y="373" type="line"/>
      <point x="471" y="373" type="line"/>
      <point x="413" y="300" type="line"/>
      <point x="241" y="300" type="line"/>
      <point x="283" y="378" type="line"/>
      <point x="40" y="280" type="line"/>
      <point x="283" y="174" type="line"/>
      <point x="238" y="259" type="line"/>
      <point x="413" y="259" type="line"/>
      <point x="471" y="185" type="line"/>
      <point x="513" y="185" type="line"/>
      <point x="455" y="259" type="line"/>
      <point x="478" y="259" type="line"/>
      <point x="537" y="185" type="line"/>
      <point x="579" y="185" type="line"/>
      <point x="520" y="259" type="line"/>
      <point x="543" y="259" type="line"/>
      <point x="601" y="185" type="line"/>
      <point x="644" y="185" type="line"/>
      <point x="585" y="259" type="line"/>
      <point x="608" y="259" type="line"/>
      <point x="667" y="185" type="line"/>
      <point x="710" y="185" type="line"/>
      <point x="651" y="259" type="line"/>
    </contour>
  </outline>
</glyph>
<glyph name="alt13" format="1">
  <advance width="553"/>
  <outline>
    <contour>
      <point x="484" y="281" type="line"/>
      <point x="76" y="458" type="line"/>
      <point x="184" y="281" type="line"/>
      <point x="76" y="118" type="line"/>
    </contour>
  </outline>
</glyph>
<glyph name="alt14" format="1">
  <advance width="560"/>
  <outline>
    <contour>
      <point x="484" y="118" type="line"/>
      <point x="376" y="281" type="line"/>
      <point x="484" y="458" type="line"/>
      <point x="76" y="281" type="line"/>
    </contour>
  </outline>
</glyph>
<glyph name="breve.case" format="1">
  <advance width="366"/>
  <outline>
    <contour>
      <point x="183" y="760" type="curve" smooth="yes"/>
      <point x="132" y="760"/>
      <point x="101" y="775"/>
      <point x="101" y="829" type="curve" smooth="yes"/>
      <point x="101" y="836" type="line"/>
      <point x="60" y="836" type="line"/>
      <point x="60" y="811" type="line" smooth="yes"/>
      <point x="60" y="741"/>
      <point x="113" y="701"/>
      <point x="183" y="701" type="curve" smooth="yes"/>
      <point x="253" y="701"/>
      <point x="306" y="741"/>
      <point x="306" y="811" type="curve" smooth="yes"/>
      <point x="306" y="835" type="line"/>
      <point x="266" y="835" type="line"/>
      <point x="266" y="829" type="line" smooth="yes"/>
      <point x="266" y="775"/>
      <point x="234" y="760"/>
    </contour>
    <contour>
      <point x="183" y="642" type="move" name="_topuc"/>
    </contour>
  </outline>
</glyph>
<glyph name="breve:acute" format="1">
  <advance width="366"/>
  <outline>
    <contour>
      <point x="183" y="553" type="curve" smooth="yes"/>
      <point x="139" y="553"/>
      <point x="112" y="572"/>
      <point x="109" y="616" type="curve"/>
      <point x="78" y="616" type="line"/>
      <point x="78" y="607" type="line" smooth="yes"/>
      <point x="78" y="534"/>
      <point x="114" y="496"/>
      <point x="183" y="496" type="curve" smooth="yes"/>
      <point x="252" y="496"/>
      <point x="288" y="534"/>
      <point x="288" y="607" type="curve" smooth="yes"/>
      <point x="288" y="616" type="line"/>
      <point x="258" y="616" type="line"/>
      <point x="255" y="572"/>
      <point x="227" y="553"/>
    </contour>
    <contour>
      <point x="210" y="731" type="line"/>
      <point x="154" y="616" type="line"/>
      <point x="177" y="602" type="line"/>
      <point x="286" y="726" type="line"/>
      <point x="286" y="733" type="line"/>
    </contour>
    <contour>
      <point x="183" y="444" type="move" name="_toplc"/>
    </contour>
  </outline>
</glyph>
<glyph name="breve:cmb:hookabovecomb" format="1">
  <advance width="366"/>
  <outline>
    <contour>
      <point x="183" y="553" type="curve" smooth="yes"/>
      <point x="139" y="553"/>
      <point x="112" y="572"/>
      <point x="109" y="616" type="curve"/>
      <point x="78" y="616" type="line"/>
      <point x="78" y="607" type="line" smooth="yes"/>
      <point x="78" y="534"/>
      <point x="114" y="496"/>
      <point x="183" y="496" type="curve" smooth="yes"/>
      <point x="252" y="496"/>
      <point x="288" y="534"/>
      <point x="288" y="607" type="curve" smooth="yes"/>
      <point x="288" y="616" type="line"/>
      <point x="258" y="616" type="line"/>
      <point x="255" y="572"/>
      <point x="227" y="553"/>
    </contour>
    <contour>
      <point x="197" y="601" type="line"/>
      <point x="213" y="643"/>
      <point x="268" y="658"/>
      <point x="268" y="707" type="curve" smooth="yes"/>
      <point x="268" y="751"/>
      <point x="235" y="778"/>
      <point x="191" y="778" type="curve" smooth="yes"/>
      <point x="142" y="778"/>
      <point x="106" y="749"/>
      <point x="100" y="701" type="curve"/>
      <point x="118" y="696" type="line"/>
      <point x="130" y="714"/>
      <point x="145" y="731"/>
      <point x="167" y="731" type="curve" smooth="yes"/>
      <point x="192" y="731"/>
      <point x="209" y="717"/>
      <point x="209" y="692" type="curve" smooth="yes"/>
      <point x="209" y="660"/>
      <point x="174" y="640"/>
      <point x="169" y="609" type="curve"/>
    </contour>
    <contour>
      <point x="183" y="444" type="move" name="_toplc"/>
    </contour>
  </outline>
</glyph>
<glyph name="breve:grave" format="1">
  <advance width="366"/>
  <outline>
    <contour>
      <point x="183" y="553" type="curve" smooth="yes"/>
      <point x="139" y="553"/>
      <point x="112" y="572"/>
      <point x="109" y="616" type="curve"/>
      <point x="78" y="616" type="line"/>
      <point x="78" y="607" type="line" smooth="yes"/>
      <point x="78" y="534"/>
      <point x="114" y="496"/>
      <point x="183" y="496" type="curve" smooth="yes"/>
      <point x="252" y="496"/>
      <point x="288" y="534"/>
      <point x="288" y="607" type="curve" smooth="yes"/>
      <point x="288" y="616" type="line"/>
      <point x="258" y="616" type="line"/>
      <point x="255" y="572"/>
      <point x="227" y="553"/>
    </contour>
    <contour>
      <point x="160" y="731" type="line"/>
      <point x="84" y="733" type="line"/>
      <point x="84" y="726" type="line"/>
      <point x="193" y="602" type="line"/>
      <point x="216" y="616" type="line"/>
    </contour>
    <contour>
      <point x="183" y="444" type="move" name="_toplc"/>
    </contour>
  </outline>
</glyph>
<glyph name="breve:tilde" format="1">
  <advance width="333"/>
  <outline>
    <contour>
      <point x="166" y="496" type="curve" smooth="yes"/>
      <point x="235" y="496"/>
      <point x="271" y="534"/>
      <point x="271" y="607" type="curve" smooth="yes"/>
      <point x="271" y="616" type="line"/>
      <point x="241" y="616" type="line"/>
      <point x="238" y="572"/>
      <point x="210" y="553"/>
      <point x="166" y="553" type="curve" smooth="yes"/>
      <point x="122" y="553"/>
      <point x="95" y="572"/>
      <point x="92" y="616" type="curve"/>
      <point x="61" y="616" type="line"/>
      <point x="61" y="607" type="line" smooth="yes"/>
      <point x="61" y="534"/>
      <point x="97" y="496"/>
    </contour>
    <contour>
      <point x="66" y="639" type="line"/>
      <point x="75" y="658"/>
      <point x="87" y="678"/>
      <point x="108" y="678" type="curve" smooth="yes"/>
      <point x="148" y="678"/>
      <point x="174" y="645"/>
      <point x="214" y="645" type="curve" smooth="yes"/>
      <point x="256" y="645"/>
      <point x="278" y="685"/>
      <point x="292" y="725" type="curve"/>
      <point x="269" y="733" type="line"/>
      <point x="258" y="714"/>
      <point x="246" y="695"/>
      <point x="224" y="695" type="curve" smooth="yes"/>
      <point x="186" y="695"/>
      <point x="160" y="728"/>
      <point x="122" y="728" type="curve" smooth="yes"/>
      <point x="79" y="728"/>
      <point x="56" y="689"/>
      <point x="41" y="649" type="curve"/>
    </contour>
    <contour>
      <point x="166" y="444" type="move" name="_toplc"/>
    </contour>
  </outline>
</glyph>
<glyph name="caron.case" format="1">
  <advance width="288"/>
  <outline>
    <contour>
      <point x="165" y="693" type="line"/>
      <point x="267" y="826" type="line"/>
      <point x="230" y="831" type="line"/>
      <point x="144" y="758" type="line"/>
      <point x="58" y="831" type="line"/>
      <point x="21" y="826" type="line"/>
      <point x="123" y="693" type="line"/>
    </contour>
    <contour>
      <point x="144" y="642" type="move" name="_topuc"/>
    </contour>
  </outline>
</glyph>
<glyph name="circumflex.case" format="1">
  <advance width="288"/>
  <outline>
    <contour>
      <point x="123" y="833" type="line"/>
      <point x="21" y="700" type="line"/>
      <point x="58" y="695" type="line"/>
      <point x="144" y="768" type="line"/>
      <point x="230" y="695" type="line"/>
      <point x="267" y="700" type="line"/>
      <point x="165" y="833" type="line"/>
    </contour>
    <contour>
      <point x="144" y="642" type="move" name="_topuc"/>
    </contour>
  </outline>
</glyph>
<glyph name="circumflex:cmb:hookabovecomb" format="1">
  <advance width="368"/>
  <outline>
    <contour>
      <point x="359" y="554" type="line"/>
      <point x="375" y="596"/>
      <point x="430" y="611"/>
      <point x="430" y="660" type="curve" smooth="yes"/>
      <point x="430" y="704"/>
      <point x="397" y="731"/>
      <point x="353" y="731" type="curve" smooth="yes"/>
      <point x="304" y="731"/>
      <point x="268" y="702"/>
      <point x="262" y="654" type="curve"/>
      <point x="280" y="649" type="line"/>
      <point x="292" y="667"/>
      <point x="307" y="684"/>
      <point x="329" y="684" type="curve" smooth="yes"/>
      <point x="354" y="684"/>
      <point x="371" y="670"/>
      <point x="371" y="645" type="curve" smooth="yes"/>
      <point x="371" y="613"/>
      <point x="336" y="593"/>
      <point x="331" y="562" type="curve"/>
    </contour>
    <component base="circumflex" xOffset="51"/>
    <contour>
      <point x="213" y="444" type="move" name="_toplc"/>
    </contour>
  </outline>
</glyph>
<glyph name="circumflex:grave" format="1">
  <advance width="326"/>
  <outline>
    <contour>
      <point x="292" y="712" type="line"/>
      <point x="222" y="706" type="line"/>
      <point x="222" y="699" type="line"/>
      <point x="320" y="567" type="line"/>
      <point x="343" y="580" type="line"/>
    </contour>
    <contour>
      <point x="151" y="665" type="line"/>
      <point x="59" y="508" type="line"/>
      <point x="86" y="492" type="line"/>
      <point x="162" y="583" type="line"/>
      <point x="238" y="492" type="line"/>
      <point x="265" y="508" type="line"/>
      <point x="173" y="665" type="line"/>
    </contour>
    <contour>
      <point x="162" y="444" type="move" name="_toplc"/>
    </contour>
  </outline>
</glyph>
<glyph name="circumflex:tilde" format="1">
  <advance width="326"/>
  <outline>
    <contour>
      <point x="151" y="635" type="line"/>
      <point x="49" y="506" type="line"/>
      <point x="76" y="490" type="line"/>
      <point x="162" y="563" type="line"/>
      <point x="248" y="490" type="line"/>
      <point x="275" y="506" type="line"/>
      <point x="173" y="635" type="line"/>
    </contour>
    <contour>
      <point x="66" y="639" type="line"/>
      <point x="75" y="658"/>
      <point x="87" y="678"/>
      <point x="108" y="678" type="curve" smooth="yes"/>
      <point x="148" y="678"/>
      <point x="174" y="645"/>
      <point x="214" y="645" type="curve" smooth="yes"/>
      <point x="256" y="645"/>
      <point x="278" y="685"/>
      <point x="292" y="725" type="curve"/>
      <point x="269" y="733" type="line"/>
      <point x="258" y="714"/>
      <point x="246" y="695"/>
      <point x="224" y="695" type="curve" smooth="yes"/>
      <point x="186" y="695"/>
      <point x="160" y="728"/>
      <point x="122" y="728" type="curve" smooth="yes"/>
      <point x="79" y="728"/>
      <point x="56" y="689"/>
      <point x="41" y="649" type="curve"/>
    </contour>
    <contour>
      <point x="162" y="444" type="move" name="_toplc"/>
    </contour>
  </outline>
</glyph>
<glyph name="dotaccent.case" format="1">
  <advance width="134"/>
  <outline>
    <contour>
      <point x="134" y="767" type="curve" smooth="yes"/>
      <point x="134" y="805"/>
      <point x="105" y="830"/>
      <point x="67" y="830" type="curve" smooth="yes"/>
      <point x="29" y="830"/>
      <point x="0" y="805"/>
      <point x="0" y="767" type="curve" smooth="yes"/>
      <point x="0" y="729"/>
      <point x="29" y="703"/>
      <point x="67" y="703" type="curve" smooth="yes"/>
      <point x="105" y="703"/>
      <point x="134" y="729"/>
    </contour>
    <contour>
      <point x="67" y="642" type="move" name="_topuc"/>
    </contour>
  </outline>
</glyph>
<glyph name="dotbelow" format="1">
  <advance width="214"/>
  <outline>
    <component base="dotaccent" yOffset="-692"/>
    <contour>
      <point x="107" y="0" type="move" name="_bottom"/>
    </contour>
  </outline>
</glyph>
<glyph name="f_i" format="1">
  <advance width="564"/>
  <outline>
    <contour>
      <point x="25" y="0" type="line"/>
      <point x="275" y="0" type="line"/>
      <point x="275" y="44" type="line"/>
      <point x="147" y="53" type="line"/>
      <point x="177" y="21" type="line"/>
      <point x="177" y="385" type="line"/>
      <point x="402" y="385" type="line"/>
      <point x="402" y="444" type="line"/>
      <point x="177" y="444" type="line"/>
      <point x="177" y="498" type="line" smooth="yes"/>
      <point x="177" y="596"/>
      <point x="231" y="630"/>
      <point x="364" y="581" type="curve" smooth="yes"/>
      <point x="434" y="555" type="line"/>
      <point x="459" y="635"/>
      <point x="424" y="664"/>
      <point x="337" y="664" type="curve" smooth="yes"/>
      <point x="188" y="664"/>
      <point x="122" y="597"/>
      <point x="105" y="484" type="curve" smooth="yes"/>
      <point x="99" y="444" type="line"/>
      <point x="19" y="434" type="line"/>
      <point x="19" y="385" type="line"/>
      <point x="97" y="385" type="line"/>
      <point x="97" y="21" type="line"/>
      <point x="127" y="55" type="line"/>
      <point x="25" y="41" type="line"/>
    </contour>
    <contour>
      <point x="315" y="385" type="line"/>
      <point x="387" y="385" type="line"/>
      <point x="387" y="21" type="line"/>
      <point x="417" y="55" type="line"/>
      <point x="315" y="41" type="line"/>
      <point x="315" y="0" type="line"/>
      <point x="539" y="0" type="line"/>
      <point x="539" y="41" type="line"/>
      <point x="437" y="55" type="line"/>
      <point x="467" y="21" type="line"/>
      <point x="467" y="380" type="line"/>
      <point x="477" y="455" type="line"/>
      <point x="315" y="444" type="line"/>
    </contour>
  </outline>
</glyph>
<glyph name="ijacute" format="1">
  <advance width="538.0"/>
  <outline>
    <contour>
      <point x="189" y="660" type="line"/>
      <point x="112" y="508" type="line"/>
      <point x="138" y="494" type="line"/>
      <point x="279" y="657" type="line"/>
      <point x="279" y="664" type="line"/>
    </contour>
    <contour>
      <point x="462" y="660" type="line"/>
      <point x="385" y="508" type="line"/>
      <point x="411" y="494" type="line"/>
      <point x="552" y="657" type="line"/>
      <point x="552" y="664" type="line"/>
    </contour>
    <contour>
      <point x="25" y="0" type="line"/>
      <point x="249" y="0" type="line"/>
      <point x="249" y="41" type="line"/>
      <point x="147" y="55" type="line"/>
      <point x="177" y="21" type="line"/>
      <point x="177" y="380" type="line"/>
      <point x="187" y="455" type="line"/>
      <point x="25" y="444" type="line"/>
      <point x="25" y="411" type="line"/>
      <point x="124" y="364" type="line"/>
      <point x="97" y="407" type="line"/>
      <point x="97" y="21" type="line"/>
      <point x="127" y="55" type="line"/>
      <point x="25" y="41" type="line"/>
    </contour>
    <contour>
      <point x="265" y="-220" type="line"/>
      <point x="343" y="-195" type="line" smooth="yes"/>
      <point x="424" y="-169"/>
      <point x="451" y="-134"/>
      <point x="451" y="-47" type="curve" smooth="yes"/>
      <point x="451" y="380" type="line"/>
      <point x="461" y="455" type="line"/>
      <point x="299" y="444" type="line"/>
      <point x="299" y="411" type="line"/>
      <point x="381" y="372" type="line"/>
      <point x="371" y="394" type="line"/>
      <point x="371" y="-9" type="line" smooth="yes"/>
      <point x="371" y="-113"/>
      <point x="363" y="-119"/>
      <point x="307" y="-149" type="curve" smooth="yes"/>
      <point x="254" y="-177" type="line"/>
    </contour>
  </outline>
</glyph>
<glyph name="nine.LP" format="1">
  <advance width="518"/>
  <outline>
    <contour>
      <point x="119" y="541"/>
      <point x="170" y="597"/>
      <point x="247" y="597" type="curve" smooth="yes"/>
      <point x="366" y="597"/>
      <point x="386" y="466"/>
      <point x="386" y="347" type="curve" smooth="yes"/>
      <point x="386" y="177"/>
      <point x="276" y="47"/>
      <point x="107" y="47" type="curve" smooth="yes"/>
      <point x="84" y="47"/>
      <point x="61" y="49"/>
      <point x="38" y="52" type="curve"/>
      <point x="38" y="2" type="line"/>
      <point x="69" y="-9"/>
      <point x="101" y="-15"/>
      <point x="133" y="-15" type="curve" smooth="yes"/>
      <point x="342" y="-15"/>
      <point x="473" y="150"/>
      <point x="473" y="364" type="curve" smooth="yes"/>
      <point x="473" y="515"/>
      <point x="396" y="647"/>
      <point x="240" y="647" type="curve" smooth="yes"/>
      <point x="122" y="647"/>
      <point x="30" y="555"/>
      <point x="30" y="426" type="curve" smooth="yes"/>
      <point x="30" y="309"/>
      <point x="111.0" y="227.0"/>
      <point x="225" y="227" type="curve" smooth="yes"/>
      <point x="289.0" y="227.0"/>
      <point x="354.0" y="243.0"/>
      <point x="401" y="305" type="curve"/>
      <point x="401" y="325" type="line"/>
      <point x="359.0" y="296.0"/>
      <point x="314" y="281"/>
      <point x="257" y="281" type="curve" smooth="yes"/>
      <point x="176" y="281"/>
      <point x="119" y="345"/>
      <point x="119" y="435" type="curve" smooth="yes"/>
    </contour>
  </outline>
</glyph>
<glyph name="ring.case" format="1">
  <advance width="199"/>
  <outline>
    <contour>
      <point x="99" y="745" type="curve" smooth="yes"/>
      <point x="67" y="745"/>
      <point x="43" y="767"/>
      <point x="43" y="797" type="curve" smooth="yes"/>
      <point x="43" y="827"/>
      <point x="67" y="850"/>
      <point x="99" y="850" type="curve" smooth="yes"/>
      <point x="132" y="850"/>
      <point x="156" y="827"/>
      <point x="156" y="797" type="curve" smooth="yes"/>
      <point x="156" y="767"/>
      <point x="132" y="745"/>
    </contour>
    <contour>
      <point x="99" y="707" type="curve" smooth="yes"/>
      <point x="157" y="707"/>
      <point x="199" y="745"/>
      <point x="199" y="797" type="curve" smooth="yes"/>
      <point x="199" y="849"/>
      <point x="157" y="887"/>
      <point x="99" y="887" type="curve" smooth="yes"/>
      <point x="41" y="887"/>
      <point x="0" y="849"/>
      <point x="0" y="797" type="curve" smooth="yes"/>
      <point x="0" y="745"/>
      <point x="41" y="707"/>
    </contour>
    <contour>
      <point x="99.0" y="642.0" type="move" name="_topuc"/>
    </contour>
  </outline>
</glyph>
<glyph name="seven.LP" format="1">
  <advance width="479"/>
  <outline>
    <contour>
      <point x="188" y="0" type="line"/>
      <point x="447" y="617" type="line"/>
      <point x="447" y="642" type="line"/>
      <point x="35" y="642" type="line"/>
      <point x="27" y="467" type="line"/>
      <point x="67" y="467" type="line"/>
      <point x="81" y="545" type="line" smooth="yes"/>
      <point x="84" y="564"/>
      <point x="97" y="575"/>
      <point x="116" y="575" type="curve" smooth="yes"/>
      <point x="385" y="575" type="line"/>
      <point x="368" y="602" type="line"/>
      <point x="97" y="8" type="line"/>
      <point x="97" y="0" type="line"/>
    </contour>
  </outline>
</glyph>
<glyph name="six.LP" format="1">
  <advance width="518"/>
  <outline>
    <contour>
      <point x="393" y="104"/>
      <point x="348" y="35"/>
      <point x="265" y="35" type="curve" smooth="yes"/>
      <point x="167" y="35"/>
      <point x="116" y="121"/>
      <point x="116" y="285" type="curve" smooth="yes"/>
      <point x="116" y="455"/>
      <point x="225.876447876" y="585.0"/>
      <point x="395" y="585" type="curve" smooth="yes"/>
      <point x="418" y="585"/>
      <point x="441" y="583"/>
      <point x="464" y="580" type="curve"/>
      <point x="464" y="630" type="line"/>
      <point x="433" y="641"/>
      <point x="401" y="647"/>
      <point x="369" y="647" type="curve" smooth="yes"/>
      <point x="159.6875" y="647.0"/>
      <point x="29.0" y="482.0"/>
      <point x="29" y="268" type="curve" smooth="yes"/>
      <point x="29.0" y="114.0"/>
      <point x="102" y="-15"/>
      <point x="265" y="-15" type="curve" smooth="yes"/>
      <point x="388" y="-15"/>
      <point x="472" y="73"/>
      <point x="472" y="196" type="curve" smooth="yes"/>
      <point x="472" y="301"/>
      <point x="390.657142857" y="375.0"/>
      <point x="277" y="375" type="curve" smooth="yes"/>
      <point x="213" y="375"/>
      <point x="148" y="359"/>
      <point x="101" y="297" type="curve"/>
      <point x="101" y="277" type="line"/>
      <point x="143" y="306"/>
      <point x="188" y="321"/>
      <point x="245" y="321" type="curve" smooth="yes"/>
      <point x="331.71875" y="321.0"/>
      <point x="393" y="265"/>
      <point x="393" y="187" type="curve" smooth="yes"/>
    </contour>
  </outline>
</glyph>
<glyph name="three.LP" format="1">
  <advance width="453"/>
  <outline>
    <contour>
      <point x="194" y="-15" type="curve" smooth="yes"/>
      <point x="312" y="-15"/>
      <point x="411" y="50"/>
      <point x="411" y="172" type="curve" smooth="yes"/>
      <point x="411" y="277"/>
      <point x="327" y="337"/>
      <point x="225" y="342" type="curve"/>
      <point x="312" y="356"/>
      <point x="385" y="414"/>
      <point x="385" y="505" type="curve" smooth="yes"/>
      <point x="385" y="594"/>
      <point x="315" y="648"/>
      <point x="228" y="648" type="curve" smooth="yes"/>
      <point x="159" y="648"/>
      <point x="92" y="626"/>
      <point x="41" y="578" type="curve"/>
      <point x="65" y="538" type="line"/>
      <point x="107" y="563"/>
      <point x="151" y="584"/>
      <point x="200" y="584" type="curve" smooth="yes"/>
      <point x="254" y="584"/>
      <point x="300" y="555"/>
      <point x="300" y="500" type="curve" smooth="yes"/>
      <point x="300" y="399"/>
      <point x="206" y="370"/>
      <point x="113" y="341" type="curve"/>
      <point x="113" y="295" type="line"/>
      <point x="219" y="294"/>
      <point x="326" y="272"/>
      <point x="326" y="162" type="curve" smooth="yes"/>
      <point x="326" y="82"/>
      <point x="265" y="29"/>
      <point x="187" y="29" type="curve" smooth="yes"/>
      <point x="168" y="29"/>
      <point x="148" y="30"/>
      <point x="80" y="38" type="curve"/>
      <point x="131" y="8" type="line"/>
      <point x="97" y="147" type="line"/>
      <point x="62" y="161"/>
      <point x="30" y="138"/>
      <point x="30" y="98" type="curve" smooth="yes"/>
      <point x="30" y="27"/>
      <point x="91" y="-15"/>
    </contour>
  </outline>
</glyph>
<glyph name="zero.LP" format="1">
  <advance width="572"/>
  <outline>
    <contour>
      <point x="526" y="306" type="curve" smooth="yes"/>
      <point x="526" y="490"/>
      <point x="448" y="628"/>
      <point x="289" y="628" type="curve" smooth="yes"/>
      <point x="138" y="628"/>
      <point x="45" y="490"/>
      <point x="45" y="306" type="curve" smooth="yes"/>
      <point x="45" y="123"/>
      <point x="123" y="-15"/>
      <point x="282" y="-15" type="curve" smooth="yes"/>
      <point x="433" y="-15"/>
      <point x="526" y="123"/>
    </contour>
    <contour>
      <point x="422" y="306" type="curve" smooth="yes"/>
      <point x="422" y="113"/>
      <point x="361" y="33"/>
      <point x="294" y="33" type="curve" smooth="yes"/>
      <point x="218" y="33"/>
      <point x="149" y="89"/>
      <point x="149" y="306" type="curve" smooth="yes"/>
      <point x="149" y="523"/>
      <point x="210" y="579"/>
      <point x="277" y="579" type="curve" smooth="yes"/>
      <point x="353" y="579"/>
      <point x="422" y="500"/>
    </contour>
  </outline>
</glyph>
